<?xml version="1.0" encoding="utf-8" standalone="no"?>
<!DOCTYPE svg PUBLIC "-//W3C//DTD SVG 1.1//EN"
  "http://www.w3.org/Graphics/SVG/1.1/DTD/svg11.dtd">
<svg xmlns:xlink="http://www.w3.org/1999/xlink" width="1242.47952pt" height="497.998723pt" viewBox="0 0 1242.47952 497.998723" xmlns="http://www.w3.org/2000/svg" version="1.1">
 <metadata>
  <rdf:RDF xmlns:dc="http://purl.org/dc/elements/1.1/" xmlns:cc="http://creativecommons.org/ns#" xmlns:rdf="http://www.w3.org/1999/02/22-rdf-syntax-ns#">
   <cc:Work>
    <dc:type rdf:resource="http://purl.org/dc/dcmitype/StillImage"/>
    <dc:date>2026-05-23T18:23:14.478565</dc:date>
    <dc:format>image/svg+xml</dc:format>
    <dc:creator>
     <cc:Agent>
      <dc:title>Matplotlib v3.10.9, https://matplotlib.org/</dc:title>
     </cc:Agent>
    </dc:creator>
   </cc:Work>
  </rdf:RDF>
 </metadata>
 <defs>
  <style type="text/css">*{stroke-linejoin: round; stroke-linecap: butt}</style>
 </defs>
 <g id="figure_1">
  <g id="patch_1">
   <path d="M 0 497.998723 
L 1242.47952 497.998723 
L 1242.47952 0 
L 0 0 
z
" style="fill: #ffffff"/>
  </g>
  <g id="axes_1">
   <g id="patch_2">
    <path d="M 68.903125 378.770537 
L 1235.27952 378.770537 
L 1235.27952 34.09354 
L 68.903125 34.09354 
z
" style="fill: #ffffff"/>
   </g>
   <g id="matplotlib.axis_1">
    <g id="xtick_1">
     <g id="line2d_1">
      <defs>
       <path id="m57b1deeb82" d="M 0 0 
L 0 3.5 
" style="stroke: #000000; stroke-width: 0.8"/>
      </defs>
      <g>
       <use xlink:href="#m57b1deeb82" x="112.751862" y="378.770537" style="stroke: #000000; stroke-width: 0.8"/>
      </g>
     </g>
     <g id="text_1">
      <!-- Architecture A -->
      <g transform="translate(41.607938 451.648855) rotate(-35) scale(0.16 -0.16)">
       <defs>
        <path id="TimesNewRomanPSMT-41" d="M 2928 1419 
L 1288 1419 
L 1000 750 
Q 894 503 894 381 
Q 894 284 986 211 
Q 1078 138 1384 116 
L 1384 0 
L 50 0 
L 50 116 
Q 316 163 394 238 
Q 553 388 747 847 
L 2238 4334 
L 2347 4334 
L 3822 809 
Q 4000 384 4145 257 
Q 4291 131 4550 116 
L 4550 0 
L 2878 0 
L 2878 116 
Q 3131 128 3220 200 
Q 3309 272 3309 375 
Q 3309 513 3184 809 
L 2928 1419 
z
M 2841 1650 
L 2122 3363 
L 1384 1650 
L 2841 1650 
z
" transform="scale(0.015625)"/>
        <path id="TimesNewRomanPSMT-72" d="M 1038 2947 
L 1038 2303 
Q 1397 2947 1775 2947 
Q 1947 2947 2059 2842 
Q 2172 2738 2172 2600 
Q 2172 2478 2090 2393 
Q 2009 2309 1897 2309 
Q 1788 2309 1652 2417 
Q 1516 2525 1450 2525 
Q 1394 2525 1328 2463 
Q 1188 2334 1038 2041 
L 1038 669 
Q 1038 431 1097 309 
Q 1138 225 1241 169 
Q 1344 113 1538 113 
L 1538 0 
L 72 0 
L 72 113 
Q 291 113 397 181 
Q 475 231 506 341 
Q 522 394 522 644 
L 522 1753 
Q 522 2253 501 2348 
Q 481 2444 426 2487 
Q 372 2531 291 2531 
Q 194 2531 72 2484 
L 41 2597 
L 906 2947 
L 1038 2947 
z
" transform="scale(0.015625)"/>
        <path id="TimesNewRomanPSMT-63" d="M 2631 1088 
Q 2516 522 2178 217 
Q 1841 -88 1431 -88 
Q 944 -88 581 321 
Q 219 731 219 1428 
Q 219 2103 620 2525 
Q 1022 2947 1584 2947 
Q 2006 2947 2278 2723 
Q 2550 2500 2550 2259 
Q 2550 2141 2473 2067 
Q 2397 1994 2259 1994 
Q 2075 1994 1981 2113 
Q 1928 2178 1911 2362 
Q 1894 2547 1784 2644 
Q 1675 2738 1481 2738 
Q 1169 2738 978 2506 
Q 725 2200 725 1697 
Q 725 1184 976 792 
Q 1228 400 1656 400 
Q 1963 400 2206 609 
Q 2378 753 2541 1131 
L 2631 1088 
z
" transform="scale(0.015625)"/>
        <path id="TimesNewRomanPSMT-68" d="M 1041 4444 
L 1041 2350 
Q 1388 2731 1591 2839 
Q 1794 2947 1997 2947 
Q 2241 2947 2416 2812 
Q 2591 2678 2675 2391 
Q 2734 2191 2734 1659 
L 2734 647 
Q 2734 375 2778 275 
Q 2809 200 2884 156 
Q 2959 113 3159 113 
L 3159 0 
L 1753 0 
L 1753 113 
L 1819 113 
Q 2019 113 2097 173 
Q 2175 234 2206 353 
Q 2216 403 2216 647 
L 2216 1659 
Q 2216 2128 2167 2275 
Q 2119 2422 2012 2495 
Q 1906 2569 1756 2569 
Q 1603 2569 1437 2487 
Q 1272 2406 1041 2159 
L 1041 647 
Q 1041 353 1073 281 
Q 1106 209 1195 161 
Q 1284 113 1503 113 
L 1503 0 
L 84 0 
L 84 113 
Q 275 113 384 172 
Q 447 203 484 290 
Q 522 378 522 647 
L 522 3238 
Q 522 3728 498 3840 
Q 475 3953 426 3993 
Q 378 4034 297 4034 
Q 231 4034 84 3984 
L 41 4094 
L 897 4444 
L 1041 4444 
z
" transform="scale(0.015625)"/>
        <path id="TimesNewRomanPSMT-69" d="M 928 4444 
Q 1059 4444 1151 4351 
Q 1244 4259 1244 4128 
Q 1244 3997 1151 3903 
Q 1059 3809 928 3809 
Q 797 3809 703 3903 
Q 609 3997 609 4128 
Q 609 4259 701 4351 
Q 794 4444 928 4444 
z
M 1188 2947 
L 1188 647 
Q 1188 378 1227 289 
Q 1266 200 1342 156 
Q 1419 113 1622 113 
L 1622 0 
L 231 0 
L 231 113 
Q 441 113 512 153 
Q 584 194 626 287 
Q 669 381 669 647 
L 669 1750 
Q 669 2216 641 2353 
Q 619 2453 572 2492 
Q 525 2531 444 2531 
Q 356 2531 231 2484 
L 188 2597 
L 1050 2947 
L 1188 2947 
z
" transform="scale(0.015625)"/>
        <path id="TimesNewRomanPSMT-74" d="M 1031 3803 
L 1031 2863 
L 1700 2863 
L 1700 2644 
L 1031 2644 
L 1031 788 
Q 1031 509 1111 412 
Q 1191 316 1316 316 
Q 1419 316 1516 380 
Q 1613 444 1666 569 
L 1788 569 
Q 1678 263 1478 108 
Q 1278 -47 1066 -47 
Q 922 -47 784 33 
Q 647 113 581 261 
Q 516 409 516 719 
L 516 2644 
L 63 2644 
L 63 2747 
Q 234 2816 414 2980 
Q 594 3144 734 3369 
Q 806 3488 934 3803 
L 1031 3803 
z
" transform="scale(0.015625)"/>
        <path id="TimesNewRomanPSMT-65" d="M 681 1784 
Q 678 1147 991 784 
Q 1303 422 1725 422 
Q 2006 422 2214 576 
Q 2422 731 2563 1106 
L 2659 1044 
Q 2594 616 2278 264 
Q 1963 -88 1488 -88 
Q 972 -88 605 314 
Q 238 716 238 1394 
Q 238 2128 614 2539 
Q 991 2950 1559 2950 
Q 2041 2950 2350 2633 
Q 2659 2316 2659 1784 
L 681 1784 
z
M 681 1966 
L 2006 1966 
Q 1991 2241 1941 2353 
Q 1863 2528 1708 2628 
Q 1553 2728 1384 2728 
Q 1125 2728 920 2526 
Q 716 2325 681 1966 
z
" transform="scale(0.015625)"/>
        <path id="TimesNewRomanPSMT-75" d="M 2709 2863 
L 2709 1128 
Q 2709 631 2732 520 
Q 2756 409 2807 365 
Q 2859 322 2928 322 
Q 3025 322 3147 375 
L 3191 266 
L 2334 -88 
L 2194 -88 
L 2194 519 
Q 1825 119 1631 15 
Q 1438 -88 1222 -88 
Q 981 -88 804 51 
Q 628 191 559 409 
Q 491 628 491 1028 
L 491 2306 
Q 491 2509 447 2587 
Q 403 2666 317 2708 
Q 231 2750 6 2747 
L 6 2863 
L 1009 2863 
L 1009 947 
Q 1009 547 1148 422 
Q 1288 297 1484 297 
Q 1619 297 1789 381 
Q 1959 466 2194 703 
L 2194 2325 
Q 2194 2569 2105 2655 
Q 2016 2741 1734 2747 
L 1734 2863 
L 2709 2863 
z
" transform="scale(0.015625)"/>
        <path id="TimesNewRomanPSMT-20" transform="scale(0.015625)"/>
       </defs>
       <use xlink:href="#TimesNewRomanPSMT-41"/>
       <use xlink:href="#TimesNewRomanPSMT-72" transform="translate(72.216797 0)"/>
       <use xlink:href="#TimesNewRomanPSMT-63" transform="translate(105.517578 0)"/>
       <use xlink:href="#TimesNewRomanPSMT-68" transform="translate(149.902344 0)"/>
       <use xlink:href="#TimesNewRomanPSMT-69" transform="translate(199.902344 0)"/>
       <use xlink:href="#TimesNewRomanPSMT-74" transform="translate(227.685547 0)"/>
       <use xlink:href="#TimesNewRomanPSMT-65" transform="translate(255.46875 0)"/>
       <use xlink:href="#TimesNewRomanPSMT-63" transform="translate(299.853516 0)"/>
       <use xlink:href="#TimesNewRomanPSMT-74" transform="translate(344.238281 0)"/>
       <use xlink:href="#TimesNewRomanPSMT-75" transform="translate(372.021484 0)"/>
       <use xlink:href="#TimesNewRomanPSMT-72" transform="translate(422.021484 0)"/>
       <use xlink:href="#TimesNewRomanPSMT-65" transform="translate(455.322266 0)"/>
       <use xlink:href="#TimesNewRomanPSMT-20" transform="translate(499.707031 0)"/>
       <use xlink:href="#TimesNewRomanPSMT-41" transform="translate(519.207031 0)"/>
      </g>
     </g>
    </g>
    <g id="xtick_2">
     <g id="line2d_2">
      <g>
       <use xlink:href="#m57b1deeb82" x="174.140093" y="378.770537" style="stroke: #000000; stroke-width: 0.8"/>
      </g>
     </g>
     <g id="text_2">
      <!-- Architecture B -->
      <g transform="translate(102.998217 451.647421) rotate(-35) scale(0.16 -0.16)">
       <defs>
        <path id="TimesNewRomanPSMT-42" d="M 2956 2163 
Q 3397 2069 3616 1863 
Q 3919 1575 3919 1159 
Q 3919 844 3719 555 
Q 3519 266 3170 133 
Q 2822 0 2106 0 
L 106 0 
L 106 116 
L 266 116 
Q 531 116 647 284 
Q 719 394 719 750 
L 719 3488 
Q 719 3881 628 3984 
Q 506 4122 266 4122 
L 106 4122 
L 106 4238 
L 1938 4238 
Q 2450 4238 2759 4163 
Q 3228 4050 3475 3764 
Q 3722 3478 3722 3106 
Q 3722 2788 3528 2536 
Q 3334 2284 2956 2163 
z
M 1319 2331 
Q 1434 2309 1582 2298 
Q 1731 2288 1909 2288 
Q 2366 2288 2595 2386 
Q 2825 2484 2947 2687 
Q 3069 2891 3069 3131 
Q 3069 3503 2766 3765 
Q 2463 4028 1881 4028 
Q 1569 4028 1319 3959 
L 1319 2331 
z
M 1319 306 
Q 1681 222 2034 222 
Q 2600 222 2897 476 
Q 3194 731 3194 1106 
Q 3194 1353 3059 1581 
Q 2925 1809 2622 1940 
Q 2319 2072 1872 2072 
Q 1678 2072 1540 2065 
Q 1403 2059 1319 2044 
L 1319 306 
z
" transform="scale(0.015625)"/>
       </defs>
       <use xlink:href="#TimesNewRomanPSMT-41"/>
       <use xlink:href="#TimesNewRomanPSMT-72" transform="translate(72.216797 0)"/>
       <use xlink:href="#TimesNewRomanPSMT-63" transform="translate(105.517578 0)"/>
       <use xlink:href="#TimesNewRomanPSMT-68" transform="translate(149.902344 0)"/>
       <use xlink:href="#TimesNewRomanPSMT-69" transform="translate(199.902344 0)"/>
       <use xlink:href="#TimesNewRomanPSMT-74" transform="translate(227.685547 0)"/>
       <use xlink:href="#TimesNewRomanPSMT-65" transform="translate(255.46875 0)"/>
       <use xlink:href="#TimesNewRomanPSMT-63" transform="translate(299.853516 0)"/>
       <use xlink:href="#TimesNewRomanPSMT-74" transform="translate(344.238281 0)"/>
       <use xlink:href="#TimesNewRomanPSMT-75" transform="translate(372.021484 0)"/>
       <use xlink:href="#TimesNewRomanPSMT-72" transform="translate(422.021484 0)"/>
       <use xlink:href="#TimesNewRomanPSMT-65" transform="translate(455.322266 0)"/>
       <use xlink:href="#TimesNewRomanPSMT-20" transform="translate(499.707031 0)"/>
       <use xlink:href="#TimesNewRomanPSMT-42" transform="translate(524.707031 0)"/>
      </g>
     </g>
    </g>
    <g id="xtick_3">
     <g id="line2d_3">
      <g>
       <use xlink:href="#m57b1deeb82" x="235.528324" y="378.770537" style="stroke: #000000; stroke-width: 0.8"/>
      </g>
     </g>
     <g id="text_3">
      <!-- Architecture C -->
      <g transform="translate(164.386448 451.647421) rotate(-35) scale(0.16 -0.16)">
       <defs>
        <path id="TimesNewRomanPSMT-43" d="M 3853 4334 
L 3950 2894 
L 3853 2894 
Q 3659 3541 3300 3825 
Q 2941 4109 2438 4109 
Q 2016 4109 1675 3895 
Q 1334 3681 1139 3212 
Q 944 2744 944 2047 
Q 944 1472 1128 1050 
Q 1313 628 1683 403 
Q 2053 178 2528 178 
Q 2941 178 3256 354 
Q 3572 531 3950 1056 
L 4047 994 
Q 3728 428 3303 165 
Q 2878 -97 2294 -97 
Q 1241 -97 663 684 
Q 231 1266 231 2053 
Q 231 2688 515 3219 
Q 800 3750 1298 4042 
Q 1797 4334 2388 4334 
Q 2847 4334 3294 4109 
Q 3425 4041 3481 4041 
Q 3566 4041 3628 4100 
Q 3709 4184 3744 4334 
L 3853 4334 
z
" transform="scale(0.015625)"/>
       </defs>
       <use xlink:href="#TimesNewRomanPSMT-41"/>
       <use xlink:href="#TimesNewRomanPSMT-72" transform="translate(72.216797 0)"/>
       <use xlink:href="#TimesNewRomanPSMT-63" transform="translate(105.517578 0)"/>
       <use xlink:href="#TimesNewRomanPSMT-68" transform="translate(149.902344 0)"/>
       <use xlink:href="#TimesNewRomanPSMT-69" transform="translate(199.902344 0)"/>
       <use xlink:href="#TimesNewRomanPSMT-74" transform="translate(227.685547 0)"/>
       <use xlink:href="#TimesNewRomanPSMT-65" transform="translate(255.46875 0)"/>
       <use xlink:href="#TimesNewRomanPSMT-63" transform="translate(299.853516 0)"/>
       <use xlink:href="#TimesNewRomanPSMT-74" transform="translate(344.238281 0)"/>
       <use xlink:href="#TimesNewRomanPSMT-75" transform="translate(372.021484 0)"/>
       <use xlink:href="#TimesNewRomanPSMT-72" transform="translate(422.021484 0)"/>
       <use xlink:href="#TimesNewRomanPSMT-65" transform="translate(455.322266 0)"/>
       <use xlink:href="#TimesNewRomanPSMT-20" transform="translate(499.707031 0)"/>
       <use xlink:href="#TimesNewRomanPSMT-43" transform="translate(524.707031 0)"/>
      </g>
     </g>
    </g>
    <g id="xtick_4">
     <g id="line2d_4">
      <g>
       <use xlink:href="#m57b1deeb82" x="296.916556" y="378.770537" style="stroke: #000000; stroke-width: 0.8"/>
      </g>
     </g>
     <g id="text_4">
      <!-- Architecture D -->
      <g transform="translate(225.051778 452.153602) rotate(-35) scale(0.16 -0.16)">
       <defs>
        <path id="TimesNewRomanPSMT-44" d="M 109 0 
L 109 116 
L 269 116 
Q 538 116 650 288 
Q 719 391 719 750 
L 719 3488 
Q 719 3884 631 3984 
Q 509 4122 269 4122 
L 109 4122 
L 109 4238 
L 1834 4238 
Q 2784 4238 3279 4022 
Q 3775 3806 4076 3303 
Q 4378 2800 4378 2141 
Q 4378 1256 3841 663 
Q 3238 0 2003 0 
L 109 0 
z
M 1319 306 
Q 1716 219 1984 219 
Q 2709 219 3187 728 
Q 3666 1238 3666 2109 
Q 3666 2988 3187 3494 
Q 2709 4000 1959 4000 
Q 1678 4000 1319 3909 
L 1319 306 
z
" transform="scale(0.015625)"/>
       </defs>
       <use xlink:href="#TimesNewRomanPSMT-41"/>
       <use xlink:href="#TimesNewRomanPSMT-72" transform="translate(72.216797 0)"/>
       <use xlink:href="#TimesNewRomanPSMT-63" transform="translate(105.517578 0)"/>
       <use xlink:href="#TimesNewRomanPSMT-68" transform="translate(149.902344 0)"/>
       <use xlink:href="#TimesNewRomanPSMT-69" transform="translate(199.902344 0)"/>
       <use xlink:href="#TimesNewRomanPSMT-74" transform="translate(227.685547 0)"/>
       <use xlink:href="#TimesNewRomanPSMT-65" transform="translate(255.46875 0)"/>
       <use xlink:href="#TimesNewRomanPSMT-63" transform="translate(299.853516 0)"/>
       <use xlink:href="#TimesNewRomanPSMT-74" transform="translate(344.238281 0)"/>
       <use xlink:href="#TimesNewRomanPSMT-75" transform="translate(372.021484 0)"/>
       <use xlink:href="#TimesNewRomanPSMT-72" transform="translate(422.021484 0)"/>
       <use xlink:href="#TimesNewRomanPSMT-65" transform="translate(455.322266 0)"/>
       <use xlink:href="#TimesNewRomanPSMT-20" transform="translate(499.707031 0)"/>
       <use xlink:href="#TimesNewRomanPSMT-44" transform="translate(524.707031 0)"/>
      </g>
     </g>
    </g>
    <g id="xtick_5">
     <g id="line2d_5">
      <g>
       <use xlink:href="#m57b1deeb82" x="358.304787" y="378.770537" style="stroke: #000000; stroke-width: 0.8"/>
      </g>
     </g>
     <g id="text_5">
      <!-- Architecture E -->
      <g transform="translate(287.900148 451.131202) rotate(-35) scale(0.16 -0.16)">
       <defs>
        <path id="TimesNewRomanPSMT-45" d="M 1338 4006 
L 1338 2331 
L 2269 2331 
Q 2631 2331 2753 2441 
Q 2916 2584 2934 2947 
L 3050 2947 
L 3050 1472 
L 2934 1472 
Q 2891 1781 2847 1869 
Q 2791 1978 2662 2040 
Q 2534 2103 2269 2103 
L 1338 2103 
L 1338 706 
Q 1338 425 1363 364 
Q 1388 303 1450 267 
Q 1513 231 1688 231 
L 2406 231 
Q 2766 231 2928 281 
Q 3091 331 3241 478 
Q 3434 672 3638 1063 
L 3763 1063 
L 3397 0 
L 131 0 
L 131 116 
L 281 116 
Q 431 116 566 188 
Q 666 238 702 338 
Q 738 438 738 747 
L 738 3500 
Q 738 3903 656 3997 
Q 544 4122 281 4122 
L 131 4122 
L 131 4238 
L 3397 4238 
L 3444 3309 
L 3322 3309 
Q 3256 3644 3176 3769 
Q 3097 3894 2941 3959 
Q 2816 4006 2500 4006 
L 1338 4006 
z
" transform="scale(0.015625)"/>
       </defs>
       <use xlink:href="#TimesNewRomanPSMT-41"/>
       <use xlink:href="#TimesNewRomanPSMT-72" transform="translate(72.216797 0)"/>
       <use xlink:href="#TimesNewRomanPSMT-63" transform="translate(105.517578 0)"/>
       <use xlink:href="#TimesNewRomanPSMT-68" transform="translate(149.902344 0)"/>
       <use xlink:href="#TimesNewRomanPSMT-69" transform="translate(199.902344 0)"/>
       <use xlink:href="#TimesNewRomanPSMT-74" transform="translate(227.685547 0)"/>
       <use xlink:href="#TimesNewRomanPSMT-65" transform="translate(255.46875 0)"/>
       <use xlink:href="#TimesNewRomanPSMT-63" transform="translate(299.853516 0)"/>
       <use xlink:href="#TimesNewRomanPSMT-74" transform="translate(344.238281 0)"/>
       <use xlink:href="#TimesNewRomanPSMT-75" transform="translate(372.021484 0)"/>
       <use xlink:href="#TimesNewRomanPSMT-72" transform="translate(422.021484 0)"/>
       <use xlink:href="#TimesNewRomanPSMT-65" transform="translate(455.322266 0)"/>
       <use xlink:href="#TimesNewRomanPSMT-20" transform="translate(499.707031 0)"/>
       <use xlink:href="#TimesNewRomanPSMT-45" transform="translate(524.707031 0)"/>
      </g>
     </g>
    </g>
    <g id="xtick_6">
     <g id="line2d_6">
      <g>
       <use xlink:href="#m57b1deeb82" x="419.693018" y="378.770537" style="stroke: #000000; stroke-width: 0.8"/>
      </g>
     </g>
     <g id="text_6">
      <!-- Architecture F -->
      <g transform="translate(350.005137 450.629322) rotate(-35) scale(0.16 -0.16)">
       <defs>
        <path id="TimesNewRomanPSMT-46" d="M 1309 4006 
L 1309 2341 
L 2081 2341 
Q 2347 2341 2470 2458 
Q 2594 2575 2634 2922 
L 2750 2922 
L 2750 1488 
L 2634 1488 
Q 2631 1734 2570 1850 
Q 2509 1966 2401 2023 
Q 2294 2081 2081 2081 
L 1309 2081 
L 1309 750 
Q 1309 428 1350 325 
Q 1381 247 1481 191 
Q 1619 116 1769 116 
L 1922 116 
L 1922 0 
L 103 0 
L 103 116 
L 253 116 
Q 516 116 634 269 
Q 709 369 709 750 
L 709 3488 
Q 709 3809 669 3913 
Q 638 3991 541 4047 
Q 406 4122 253 4122 
L 103 4122 
L 103 4238 
L 3256 4238 
L 3297 3306 
L 3188 3306 
Q 3106 3603 2998 3742 
Q 2891 3881 2733 3943 
Q 2575 4006 2244 4006 
L 1309 4006 
z
" transform="scale(0.015625)"/>
       </defs>
       <use xlink:href="#TimesNewRomanPSMT-41"/>
       <use xlink:href="#TimesNewRomanPSMT-72" transform="translate(72.216797 0)"/>
       <use xlink:href="#TimesNewRomanPSMT-63" transform="translate(105.517578 0)"/>
       <use xlink:href="#TimesNewRomanPSMT-68" transform="translate(149.902344 0)"/>
       <use xlink:href="#TimesNewRomanPSMT-69" transform="translate(199.902344 0)"/>
       <use xlink:href="#TimesNewRomanPSMT-74" transform="translate(227.685547 0)"/>
       <use xlink:href="#TimesNewRomanPSMT-65" transform="translate(255.46875 0)"/>
       <use xlink:href="#TimesNewRomanPSMT-63" transform="translate(299.853516 0)"/>
       <use xlink:href="#TimesNewRomanPSMT-74" transform="translate(344.238281 0)"/>
       <use xlink:href="#TimesNewRomanPSMT-75" transform="translate(372.021484 0)"/>
       <use xlink:href="#TimesNewRomanPSMT-72" transform="translate(422.021484 0)"/>
       <use xlink:href="#TimesNewRomanPSMT-65" transform="translate(455.322266 0)"/>
       <use xlink:href="#TimesNewRomanPSMT-20" transform="translate(499.707031 0)"/>
       <use xlink:href="#TimesNewRomanPSMT-46" transform="translate(524.707031 0)"/>
      </g>
     </g>
    </g>
    <g id="xtick_7">
     <g id="line2d_7">
      <g>
       <use xlink:href="#m57b1deeb82" x="529.31486" y="378.770537" style="stroke: #000000; stroke-width: 0.8"/>
      </g>
     </g>
     <g id="text_7">
      <!-- $\mathcal{A}_{\mathrm{acc}}^{*}$ -->
      <g transform="translate(511.374139 415.091412) rotate(-35) scale(0.16 -0.16)">
       <defs>
        <path id="Cmsy10-41" d="M 178 238 
Q 178 347 258 542 
Q 338 738 434 738 
Q 453 738 464 720 
Q 475 703 479 673 
Q 484 644 488 622 
Q 531 481 672 387 
Q 813 294 959 294 
Q 1163 294 1450 658 
Q 1738 1022 2028 1466 
L 2156 1650 
Q 2469 2125 2703 2515 
Q 2938 2906 3180 3357 
Q 3422 3809 3628 4250 
L 3688 4250 
Q 3688 4338 3769 4425 
Q 3850 4513 3964 4570 
Q 4078 4628 4147 4628 
L 4219 4628 
Q 4256 4613 4256 4569 
Q 4256 4384 4254 4264 
Q 4253 4144 4250 4000 
Q 4250 3344 4276 2730 
Q 4303 2116 4366 1388 
Q 4384 1200 4411 1028 
Q 4438 856 4481 664 
Q 4525 472 4569 325 
Q 4588 263 4642 223 
Q 4697 184 4763 184 
Q 4944 288 5069 300 
L 5106 300 
Q 5153 275 5153 250 
Q 5153 166 4995 61 
Q 4838 -44 4639 -117 
Q 4441 -191 4341 -191 
L 4300 -191 
Q 4106 -191 4013 -19 
Q 3956 106 3879 514 
Q 3803 922 3803 1050 
L 2075 1050 
Q 1822 669 1639 419 
Q 1456 169 1204 -75 
Q 953 -319 763 -319 
Q 544 -319 361 -148 
Q 178 22 178 238 
z
M 2259 1331 
Q 2434 1416 2534 1428 
L 3769 1428 
Q 3681 2600 3681 3719 
L 3681 3822 
Q 3347 3138 2989 2516 
Q 2631 1894 2259 1331 
z
" transform="scale(0.015625)"/>
        <path id="Cmsy10-a4" d="M 603 813 
Q 531 813 473 873 
Q 416 934 416 1006 
Q 416 1116 506 1159 
L 1428 1600 
L 506 2034 
Q 416 2072 416 2188 
Q 416 2259 473 2320 
Q 531 2381 603 2381 
Q 650 2381 691 2350 
L 1509 1753 
L 1416 2797 
Q 1416 2875 1469 2925 
Q 1522 2975 1600 2975 
Q 1675 2975 1726 2928 
Q 1778 2881 1778 2809 
L 1778 2797 
L 1684 1753 
L 2503 2350 
Q 2544 2381 2591 2381 
Q 2669 2381 2723 2320 
Q 2778 2259 2778 2188 
Q 2778 2072 2688 2034 
L 1766 1600 
L 2688 1159 
Q 2778 1116 2778 1006 
Q 2778 934 2723 873 
Q 2669 813 2591 813 
Q 2544 813 2503 844 
L 1684 1441 
L 1778 403 
L 1778 384 
Q 1778 313 1723 266 
Q 1669 219 1600 219 
Q 1525 219 1470 270 
Q 1416 322 1416 397 
L 1509 1441 
L 691 844 
Q 650 813 603 813 
z
" transform="scale(0.015625)"/>
        <path id="Cmr10-61" d="M 256 628 
Q 256 1009 556 1248 
Q 856 1488 1276 1586 
Q 1697 1684 2075 1684 
L 2075 1947 
Q 2075 2131 1994 2304 
Q 1913 2478 1759 2589 
Q 1606 2700 1422 2700 
Q 997 2700 775 2509 
Q 897 2509 976 2417 
Q 1056 2325 1056 2203 
Q 1056 2075 965 1984 
Q 875 1894 750 1894 
Q 622 1894 531 1984 
Q 441 2075 441 2203 
Q 441 2541 747 2705 
Q 1053 2869 1422 2869 
Q 1681 2869 1943 2758 
Q 2206 2647 2373 2440 
Q 2541 2234 2541 1959 
L 2541 519 
Q 2541 394 2594 289 
Q 2647 184 2759 184 
Q 2866 184 2917 290 
Q 2969 397 2969 519 
L 2969 928 
L 3156 928 
L 3156 519 
Q 3156 375 3081 245 
Q 3006 116 2879 39 
Q 2753 -38 2606 -38 
Q 2419 -38 2283 107 
Q 2147 253 2131 453 
Q 2013 213 1781 70 
Q 1550 -72 1288 -72 
Q 1044 -72 808 0 
Q 572 72 414 226 
Q 256 381 256 628 
z
M 775 628 
Q 775 403 940 250 
Q 1106 97 1331 97 
Q 1538 97 1706 200 
Q 1875 303 1975 481 
Q 2075 659 2075 856 
L 2075 1522 
Q 1784 1522 1479 1426 
Q 1175 1331 975 1128 
Q 775 925 775 628 
z
" transform="scale(0.015625)"/>
        <path id="Cmr10-63" d="M 1594 -72 
Q 1206 -72 890 129 
Q 575 331 394 667 
Q 213 1003 213 1381 
Q 213 1759 392 2106 
Q 572 2453 889 2661 
Q 1206 2869 1594 2869 
Q 1969 2869 2276 2722 
Q 2584 2575 2584 2241 
Q 2584 2116 2495 2023 
Q 2406 1931 2278 1931 
Q 2150 1931 2061 2023 
Q 1972 2116 1972 2241 
Q 1972 2353 2044 2436 
Q 2116 2519 2222 2541 
Q 2000 2681 1600 2681 
Q 1294 2681 1106 2478 
Q 919 2275 844 1975 
Q 769 1675 769 1381 
Q 769 1072 861 783 
Q 953 494 1158 305 
Q 1363 116 1672 116 
Q 1975 116 2187 302 
Q 2400 488 2478 788 
Q 2478 825 2528 825 
L 2606 825 
Q 2625 825 2640 808 
Q 2656 791 2656 769 
L 2656 750 
Q 2559 372 2271 150 
Q 1984 -72 1594 -72 
z
" transform="scale(0.015625)"/>
       </defs>
       <use xlink:href="#Cmsy10-41" transform="translate(0 0.6875)"/>
       <use xlink:href="#Cmsy10-a4" transform="translate(84.249297 38.951562) scale(0.7)"/>
       <use xlink:href="#Cmr10-61" transform="translate(84.249297 -24.821875) scale(0.7)"/>
       <use xlink:href="#Cmr10-63" transform="translate(119.249297 -24.821875) scale(0.7)"/>
       <use xlink:href="#Cmr10-63" transform="translate(150.318633 -24.821875) scale(0.7)"/>
      </g>
     </g>
    </g>
    <g id="xtick_8">
     <g id="line2d_8">
      <g>
       <use xlink:href="#m57b1deeb82" x="638.936702" y="378.770537" style="stroke: #000000; stroke-width: 0.8"/>
      </g>
     </g>
     <g id="text_8">
      <!-- $\mathcal{A}^{*}$(Yas Marina) -->
      <g transform="translate(558.87149 458.591449) rotate(-35) scale(0.16 -0.16)">
       <defs>
        <path id="TimesNewRomanPSMT-28" d="M 1988 -1253 
L 1988 -1369 
Q 1516 -1131 1200 -813 
Q 750 -359 506 256 
Q 263 872 263 1534 
Q 263 2503 741 3301 
Q 1219 4100 1988 4444 
L 1988 4313 
Q 1603 4100 1356 3731 
Q 1109 3363 987 2797 
Q 866 2231 866 1616 
Q 866 947 969 400 
Q 1050 -31 1165 -292 
Q 1281 -553 1476 -793 
Q 1672 -1034 1988 -1253 
z
" transform="scale(0.015625)"/>
        <path id="TimesNewRomanPSMT-59" d="M 3050 4238 
L 4528 4238 
L 4528 4122 
L 4447 4122 
Q 4366 4122 4209 4050 
Q 4053 3978 3925 3843 
Q 3797 3709 3609 3406 
L 2588 1797 
L 2588 734 
Q 2588 344 2675 247 
Q 2794 116 3050 116 
L 3188 116 
L 3188 0 
L 1388 0 
L 1388 116 
L 1538 116 
Q 1806 116 1919 278 
Q 1988 378 1988 734 
L 1988 1738 
L 825 3513 
Q 619 3825 545 3903 
Q 472 3981 241 4091 
Q 178 4122 59 4122 
L 59 4238 
L 1872 4238 
L 1872 4122 
L 1778 4122 
Q 1631 4122 1507 4053 
Q 1384 3984 1384 3847 
Q 1384 3734 1575 3441 
L 2459 2075 
L 3291 3381 
Q 3478 3675 3478 3819 
Q 3478 3906 3433 3975 
Q 3388 4044 3303 4083 
Q 3219 4122 3050 4122 
L 3050 4238 
z
" transform="scale(0.015625)"/>
        <path id="TimesNewRomanPSMT-61" d="M 1822 413 
Q 1381 72 1269 19 
Q 1100 -59 909 -59 
Q 613 -59 420 144 
Q 228 347 228 678 
Q 228 888 322 1041 
Q 450 1253 767 1440 
Q 1084 1628 1822 1897 
L 1822 2009 
Q 1822 2438 1686 2597 
Q 1550 2756 1291 2756 
Q 1094 2756 978 2650 
Q 859 2544 859 2406 
L 866 2225 
Q 866 2081 792 2003 
Q 719 1925 600 1925 
Q 484 1925 411 2006 
Q 338 2088 338 2228 
Q 338 2497 613 2722 
Q 888 2947 1384 2947 
Q 1766 2947 2009 2819 
Q 2194 2722 2281 2516 
Q 2338 2381 2338 1966 
L 2338 994 
Q 2338 584 2353 492 
Q 2369 400 2405 369 
Q 2441 338 2488 338 
Q 2538 338 2575 359 
Q 2641 400 2828 588 
L 2828 413 
Q 2478 -56 2159 -56 
Q 2006 -56 1915 50 
Q 1825 156 1822 413 
z
M 1822 616 
L 1822 1706 
Q 1350 1519 1213 1441 
Q 966 1303 859 1153 
Q 753 1003 753 825 
Q 753 600 887 451 
Q 1022 303 1197 303 
Q 1434 303 1822 616 
z
" transform="scale(0.015625)"/>
        <path id="TimesNewRomanPSMT-73" d="M 2050 2947 
L 2050 1972 
L 1947 1972 
Q 1828 2431 1642 2597 
Q 1456 2763 1169 2763 
Q 950 2763 815 2647 
Q 681 2531 681 2391 
Q 681 2216 781 2091 
Q 878 1963 1175 1819 
L 1631 1597 
Q 2266 1288 2266 781 
Q 2266 391 1970 151 
Q 1675 -88 1309 -88 
Q 1047 -88 709 6 
Q 606 38 541 38 
Q 469 38 428 -44 
L 325 -44 
L 325 978 
L 428 978 
Q 516 541 762 319 
Q 1009 97 1316 97 
Q 1531 97 1667 223 
Q 1803 350 1803 528 
Q 1803 744 1651 891 
Q 1500 1038 1047 1263 
Q 594 1488 453 1669 
Q 313 1847 313 2119 
Q 313 2472 555 2709 
Q 797 2947 1181 2947 
Q 1350 2947 1591 2875 
Q 1750 2828 1803 2828 
Q 1853 2828 1881 2850 
Q 1909 2872 1947 2947 
L 2050 2947 
z
" transform="scale(0.015625)"/>
        <path id="TimesNewRomanPSMT-4d" d="M 2619 0 
L 981 3566 
L 981 734 
Q 981 344 1066 247 
Q 1181 116 1431 116 
L 1581 116 
L 1581 0 
L 106 0 
L 106 116 
L 256 116 
Q 525 116 638 278 
Q 706 378 706 734 
L 706 3503 
Q 706 3784 644 3909 
Q 600 4000 483 4061 
Q 366 4122 106 4122 
L 106 4238 
L 1306 4238 
L 2844 922 
L 4356 4238 
L 5556 4238 
L 5556 4122 
L 5409 4122 
Q 5138 4122 5025 3959 
Q 4956 3859 4956 3503 
L 4956 734 
Q 4956 344 5044 247 
Q 5159 116 5409 116 
L 5556 116 
L 5556 0 
L 3756 0 
L 3756 116 
L 3906 116 
Q 4178 116 4288 278 
Q 4356 378 4356 734 
L 4356 3566 
L 2722 0 
L 2619 0 
z
" transform="scale(0.015625)"/>
        <path id="TimesNewRomanPSMT-6e" d="M 1034 2341 
Q 1538 2947 1994 2947 
Q 2228 2947 2397 2830 
Q 2566 2713 2666 2444 
Q 2734 2256 2734 1869 
L 2734 647 
Q 2734 375 2778 278 
Q 2813 200 2889 156 
Q 2966 113 3172 113 
L 3172 0 
L 1756 0 
L 1756 113 
L 1816 113 
Q 2016 113 2095 173 
Q 2175 234 2206 353 
Q 2219 400 2219 647 
L 2219 1819 
Q 2219 2209 2117 2386 
Q 2016 2563 1775 2563 
Q 1403 2563 1034 2156 
L 1034 647 
Q 1034 356 1069 288 
Q 1113 197 1189 155 
Q 1266 113 1500 113 
L 1500 0 
L 84 0 
L 84 113 
L 147 113 
Q 366 113 442 223 
Q 519 334 519 647 
L 519 1709 
Q 519 2225 495 2337 
Q 472 2450 423 2490 
Q 375 2531 294 2531 
Q 206 2531 84 2484 
L 38 2597 
L 900 2947 
L 1034 2947 
L 1034 2341 
z
" transform="scale(0.015625)"/>
        <path id="TimesNewRomanPSMT-29" d="M 144 4313 
L 144 4444 
Q 619 4209 934 3891 
Q 1381 3434 1625 2820 
Q 1869 2206 1869 1541 
Q 1869 572 1392 -226 
Q 916 -1025 144 -1369 
L 144 -1253 
Q 528 -1038 776 -670 
Q 1025 -303 1145 264 
Q 1266 831 1266 1447 
Q 1266 2113 1163 2663 
Q 1084 3094 967 3353 
Q 850 3613 656 3853 
Q 463 4094 144 4313 
z
" transform="scale(0.015625)"/>
       </defs>
       <use xlink:href="#Cmsy10-41" transform="translate(0 0.6875)"/>
       <use xlink:href="#Cmsy10-a4" transform="translate(84.249297 38.951563) scale(0.7)"/>
       <use xlink:href="#TimesNewRomanPSMT-28" transform="translate(125.626641 0.6875)"/>
       <use xlink:href="#TimesNewRomanPSMT-59" transform="translate(158.927422 0.6875)"/>
       <use xlink:href="#TimesNewRomanPSMT-61" transform="translate(231.144219 0.6875)"/>
       <use xlink:href="#TimesNewRomanPSMT-73" transform="translate(275.528984 0.6875)"/>
       <use xlink:href="#TimesNewRomanPSMT-20" transform="translate(314.445 0.6875)"/>
       <use xlink:href="#TimesNewRomanPSMT-4d" transform="translate(339.445 0.6875)"/>
       <use xlink:href="#TimesNewRomanPSMT-61" transform="translate(428.361016 0.6875)"/>
       <use xlink:href="#TimesNewRomanPSMT-72" transform="translate(472.745781 0.6875)"/>
       <use xlink:href="#TimesNewRomanPSMT-69" transform="translate(506.046562 0.6875)"/>
       <use xlink:href="#TimesNewRomanPSMT-6e" transform="translate(533.829766 0.6875)"/>
       <use xlink:href="#TimesNewRomanPSMT-61" transform="translate(583.829766 0.6875)"/>
       <use xlink:href="#TimesNewRomanPSMT-29" transform="translate(628.214531 0.6875)"/>
      </g>
     </g>
    </g>
    <g id="xtick_9">
     <g id="line2d_9">
      <g>
       <use xlink:href="#m57b1deeb82" x="700.324933" y="378.770537" style="stroke: #000000; stroke-width: 0.8"/>
      </g>
     </g>
     <g id="text_9">
      <!-- $\mathcal{A}^{*}$(Melbourne) -->
      <g transform="translate(624.322715 455.74651) rotate(-35) scale(0.16 -0.16)">
       <defs>
        <path id="TimesNewRomanPSMT-6c" d="M 1184 4444 
L 1184 647 
Q 1184 378 1223 290 
Q 1263 203 1344 158 
Q 1425 113 1647 113 
L 1647 0 
L 244 0 
L 244 113 
Q 441 113 512 153 
Q 584 194 625 287 
Q 666 381 666 647 
L 666 3247 
Q 666 3731 644 3842 
Q 622 3953 573 3993 
Q 525 4034 450 4034 
Q 369 4034 244 3984 
L 191 4094 
L 1044 4444 
L 1184 4444 
z
" transform="scale(0.015625)"/>
        <path id="TimesNewRomanPSMT-62" d="M 984 2369 
Q 1400 2947 1881 2947 
Q 2322 2947 2650 2570 
Q 2978 2194 2978 1541 
Q 2978 778 2472 313 
Q 2038 -88 1503 -88 
Q 1253 -88 995 3 
Q 738 94 469 275 
L 469 3241 
Q 469 3728 445 3840 
Q 422 3953 372 3993 
Q 322 4034 247 4034 
Q 159 4034 28 3984 
L -16 4094 
L 844 4444 
L 984 4444 
L 984 2369 
z
M 984 2169 
L 984 456 
Q 1144 300 1314 220 
Q 1484 141 1663 141 
Q 1947 141 2192 453 
Q 2438 766 2438 1363 
Q 2438 1913 2192 2208 
Q 1947 2503 1634 2503 
Q 1469 2503 1303 2419 
Q 1178 2356 984 2169 
z
" transform="scale(0.015625)"/>
        <path id="TimesNewRomanPSMT-6f" d="M 1600 2947 
Q 2250 2947 2644 2453 
Q 2978 2031 2978 1484 
Q 2978 1100 2793 706 
Q 2609 313 2286 112 
Q 1963 -88 1566 -88 
Q 919 -88 538 428 
Q 216 863 216 1403 
Q 216 1797 411 2186 
Q 606 2575 925 2761 
Q 1244 2947 1600 2947 
z
M 1503 2744 
Q 1338 2744 1170 2645 
Q 1003 2547 900 2300 
Q 797 2053 797 1666 
Q 797 1041 1045 587 
Q 1294 134 1700 134 
Q 2003 134 2200 384 
Q 2397 634 2397 1244 
Q 2397 2006 2069 2444 
Q 1847 2744 1503 2744 
z
" transform="scale(0.015625)"/>
       </defs>
       <use xlink:href="#Cmsy10-41" transform="translate(0 0.6875)"/>
       <use xlink:href="#Cmsy10-a4" transform="translate(84.249297 38.951563) scale(0.7)"/>
       <use xlink:href="#TimesNewRomanPSMT-28" transform="translate(125.626641 0.6875)"/>
       <use xlink:href="#TimesNewRomanPSMT-4d" transform="translate(158.927422 0.6875)"/>
       <use xlink:href="#TimesNewRomanPSMT-65" transform="translate(247.843437 0.6875)"/>
       <use xlink:href="#TimesNewRomanPSMT-6c" transform="translate(292.228203 0.6875)"/>
       <use xlink:href="#TimesNewRomanPSMT-62" transform="translate(320.011406 0.6875)"/>
       <use xlink:href="#TimesNewRomanPSMT-6f" transform="translate(370.011406 0.6875)"/>
       <use xlink:href="#TimesNewRomanPSMT-75" transform="translate(420.011406 0.6875)"/>
       <use xlink:href="#TimesNewRomanPSMT-72" transform="translate(470.011406 0.6875)"/>
       <use xlink:href="#TimesNewRomanPSMT-6e" transform="translate(503.312187 0.6875)"/>
       <use xlink:href="#TimesNewRomanPSMT-65" transform="translate(553.312187 0.6875)"/>
       <use xlink:href="#TimesNewRomanPSMT-29" transform="translate(597.696953 0.6875)"/>
      </g>
     </g>
    </g>
    <g id="xtick_10">
     <g id="line2d_10">
      <g>
       <use xlink:href="#m57b1deeb82" x="761.713164" y="378.770537" style="stroke: #000000; stroke-width: 0.8"/>
      </g>
     </g>
     <g id="text_10">
      <!-- $\mathcal{A}^{*}$(Sakhir) -->
      <g transform="translate(708.909332 439.502825) rotate(-35) scale(0.16 -0.16)">
       <defs>
        <path id="TimesNewRomanPSMT-53" d="M 2934 4334 
L 2934 2869 
L 2819 2869 
Q 2763 3291 2617 3541 
Q 2472 3791 2203 3937 
Q 1934 4084 1647 4084 
Q 1322 4084 1109 3886 
Q 897 3688 897 3434 
Q 897 3241 1031 3081 
Q 1225 2847 1953 2456 
Q 2547 2138 2764 1967 
Q 2981 1797 3098 1565 
Q 3216 1334 3216 1081 
Q 3216 600 2842 251 
Q 2469 -97 1881 -97 
Q 1697 -97 1534 -69 
Q 1438 -53 1133 45 
Q 828 144 747 144 
Q 669 144 623 97 
Q 578 50 556 -97 
L 441 -97 
L 441 1356 
L 556 1356 
Q 638 900 775 673 
Q 913 447 1195 297 
Q 1478 147 1816 147 
Q 2206 147 2432 353 
Q 2659 559 2659 841 
Q 2659 997 2573 1156 
Q 2488 1316 2306 1453 
Q 2184 1547 1640 1851 
Q 1097 2156 867 2337 
Q 638 2519 519 2737 
Q 400 2956 400 3219 
Q 400 3675 750 4004 
Q 1100 4334 1641 4334 
Q 1978 4334 2356 4169 
Q 2531 4091 2603 4091 
Q 2684 4091 2736 4139 
Q 2788 4188 2819 4334 
L 2934 4334 
z
" transform="scale(0.015625)"/>
        <path id="TimesNewRomanPSMT-6b" d="M 1047 4444 
L 1047 1594 
L 1775 2259 
Q 2006 2472 2044 2528 
Q 2069 2566 2069 2603 
Q 2069 2666 2017 2711 
Q 1966 2756 1847 2763 
L 1847 2863 
L 3091 2863 
L 3091 2763 
Q 2834 2756 2664 2684 
Q 2494 2613 2291 2428 
L 1556 1750 
L 2291 822 
Q 2597 438 2703 334 
Q 2853 188 2966 144 
Q 3044 113 3238 113 
L 3238 0 
L 1847 0 
L 1847 113 
Q 1966 116 2008 148 
Q 2050 181 2050 241 
Q 2050 313 1925 472 
L 1047 1594 
L 1047 644 
Q 1047 366 1086 278 
Q 1125 191 1197 153 
Q 1269 116 1509 113 
L 1509 0 
L 53 0 
L 53 113 
Q 272 113 381 166 
Q 447 200 481 272 
Q 528 375 528 628 
L 528 3234 
Q 528 3731 506 3842 
Q 484 3953 434 3995 
Q 384 4038 303 4038 
Q 238 4038 106 3984 
L 53 4094 
L 903 4444 
L 1047 4444 
z
" transform="scale(0.015625)"/>
       </defs>
       <use xlink:href="#Cmsy10-41" transform="translate(0 0.6875)"/>
       <use xlink:href="#Cmsy10-a4" transform="translate(84.249297 38.951563) scale(0.7)"/>
       <use xlink:href="#TimesNewRomanPSMT-28" transform="translate(125.626641 0.6875)"/>
       <use xlink:href="#TimesNewRomanPSMT-53" transform="translate(158.927422 0.6875)"/>
       <use xlink:href="#TimesNewRomanPSMT-61" transform="translate(214.542656 0.6875)"/>
       <use xlink:href="#TimesNewRomanPSMT-6b" transform="translate(258.927422 0.6875)"/>
       <use xlink:href="#TimesNewRomanPSMT-68" transform="translate(308.927422 0.6875)"/>
       <use xlink:href="#TimesNewRomanPSMT-69" transform="translate(358.927422 0.6875)"/>
       <use xlink:href="#TimesNewRomanPSMT-72" transform="translate(386.710625 0.6875)"/>
       <use xlink:href="#TimesNewRomanPSMT-29" transform="translate(420.011406 0.6875)"/>
      </g>
     </g>
    </g>
    <g id="xtick_11">
     <g id="line2d_11">
      <g>
       <use xlink:href="#m57b1deeb82" x="823.101395" y="378.770537" style="stroke: #000000; stroke-width: 0.8"/>
      </g>
     </g>
     <g id="text_11">
      <!-- $\mathcal{A}^{*}$(Budapest) -->
      <g transform="translate(755.749423 449.689543) rotate(-35) scale(0.16 -0.16)">
       <defs>
        <path id="TimesNewRomanPSMT-64" d="M 2222 322 
Q 2013 103 1813 7 
Q 1613 -88 1381 -88 
Q 913 -88 563 304 
Q 213 697 213 1313 
Q 213 1928 600 2439 
Q 988 2950 1597 2950 
Q 1975 2950 2222 2709 
L 2222 3238 
Q 2222 3728 2198 3840 
Q 2175 3953 2125 3993 
Q 2075 4034 2000 4034 
Q 1919 4034 1784 3984 
L 1744 4094 
L 2597 4444 
L 2738 4444 
L 2738 1134 
Q 2738 631 2761 520 
Q 2784 409 2836 365 
Q 2888 322 2956 322 
Q 3041 322 3181 375 
L 3216 266 
L 2366 -88 
L 2222 -88 
L 2222 322 
z
M 2222 541 
L 2222 2016 
Q 2203 2228 2109 2403 
Q 2016 2578 1861 2667 
Q 1706 2756 1559 2756 
Q 1284 2756 1069 2509 
Q 784 2184 784 1559 
Q 784 928 1059 592 
Q 1334 256 1672 256 
Q 1956 256 2222 541 
z
" transform="scale(0.015625)"/>
        <path id="TimesNewRomanPSMT-70" d="M -6 2578 
L 875 2934 
L 994 2934 
L 994 2266 
Q 1216 2644 1439 2795 
Q 1663 2947 1909 2947 
Q 2341 2947 2628 2609 
Q 2981 2197 2981 1534 
Q 2981 794 2556 309 
Q 2206 -88 1675 -88 
Q 1444 -88 1275 -22 
Q 1150 25 994 166 
L 994 -706 
Q 994 -1000 1030 -1079 
Q 1066 -1159 1155 -1206 
Q 1244 -1253 1478 -1253 
L 1478 -1369 
L -22 -1369 
L -22 -1253 
L 56 -1253 
Q 228 -1256 350 -1188 
Q 409 -1153 442 -1076 
Q 475 -1000 475 -688 
L 475 2019 
Q 475 2297 450 2372 
Q 425 2447 370 2484 
Q 316 2522 222 2522 
Q 147 2522 31 2478 
L -6 2578 
z
M 994 2081 
L 994 1013 
Q 994 666 1022 556 
Q 1066 375 1236 237 
Q 1406 100 1666 100 
Q 1978 100 2172 344 
Q 2425 663 2425 1241 
Q 2425 1897 2138 2250 
Q 1938 2494 1663 2494 
Q 1513 2494 1366 2419 
Q 1253 2363 994 2081 
z
" transform="scale(0.015625)"/>
       </defs>
       <use xlink:href="#Cmsy10-41" transform="translate(0 0.6875)"/>
       <use xlink:href="#Cmsy10-a4" transform="translate(84.249297 38.951563) scale(0.7)"/>
       <use xlink:href="#TimesNewRomanPSMT-28" transform="translate(125.626641 0.6875)"/>
       <use xlink:href="#TimesNewRomanPSMT-42" transform="translate(158.927422 0.6875)"/>
       <use xlink:href="#TimesNewRomanPSMT-75" transform="translate(225.626641 0.6875)"/>
       <use xlink:href="#TimesNewRomanPSMT-64" transform="translate(275.626641 0.6875)"/>
       <use xlink:href="#TimesNewRomanPSMT-61" transform="translate(325.626641 0.6875)"/>
       <use xlink:href="#TimesNewRomanPSMT-70" transform="translate(370.011406 0.6875)"/>
       <use xlink:href="#TimesNewRomanPSMT-65" transform="translate(420.011406 0.6875)"/>
       <use xlink:href="#TimesNewRomanPSMT-73" transform="translate(464.396172 0.6875)"/>
       <use xlink:href="#TimesNewRomanPSMT-74" transform="translate(503.312187 0.6875)"/>
       <use xlink:href="#TimesNewRomanPSMT-29" transform="translate(531.095391 0.6875)"/>
      </g>
     </g>
    </g>
    <g id="xtick_12">
     <g id="line2d_12">
      <g>
       <use xlink:href="#m57b1deeb82" x="884.489627" y="378.770537" style="stroke: #000000; stroke-width: 0.8"/>
      </g>
     </g>
     <g id="text_12">
      <!-- $\mathcal{A}^{*}$(Sao Paulo) -->
      <g transform="translate(813.074661 452.534482) rotate(-35) scale(0.16 -0.16)">
       <defs>
        <path id="TimesNewRomanPSMT-50" d="M 1313 1984 
L 1313 750 
Q 1313 350 1400 253 
Q 1519 116 1759 116 
L 1922 116 
L 1922 0 
L 106 0 
L 106 116 
L 266 116 
Q 534 116 650 291 
Q 713 388 713 750 
L 713 3488 
Q 713 3888 628 3984 
Q 506 4122 266 4122 
L 106 4122 
L 106 4238 
L 1659 4238 
Q 2228 4238 2556 4120 
Q 2884 4003 3109 3725 
Q 3334 3447 3334 3066 
Q 3334 2547 2992 2222 
Q 2650 1897 2025 1897 
Q 1872 1897 1694 1919 
Q 1516 1941 1313 1984 
z
M 1313 2163 
Q 1478 2131 1606 2115 
Q 1734 2100 1825 2100 
Q 2150 2100 2386 2351 
Q 2622 2603 2622 3003 
Q 2622 3278 2509 3514 
Q 2397 3750 2190 3867 
Q 1984 3984 1722 3984 
Q 1563 3984 1313 3925 
L 1313 2163 
z
" transform="scale(0.015625)"/>
       </defs>
       <use xlink:href="#Cmsy10-41" transform="translate(0 0.6875)"/>
       <use xlink:href="#Cmsy10-a4" transform="translate(84.249297 38.951563) scale(0.7)"/>
       <use xlink:href="#TimesNewRomanPSMT-28" transform="translate(125.626641 0.6875)"/>
       <use xlink:href="#TimesNewRomanPSMT-53" transform="translate(158.927422 0.6875)"/>
       <use xlink:href="#TimesNewRomanPSMT-61" transform="translate(214.542656 0.6875)"/>
       <use xlink:href="#TimesNewRomanPSMT-6f" transform="translate(258.927422 0.6875)"/>
       <use xlink:href="#TimesNewRomanPSMT-20" transform="translate(308.927422 0.6875)"/>
       <use xlink:href="#TimesNewRomanPSMT-50" transform="translate(333.927422 0.6875)"/>
       <use xlink:href="#TimesNewRomanPSMT-61" transform="translate(389.542656 0.6875)"/>
       <use xlink:href="#TimesNewRomanPSMT-75" transform="translate(433.927422 0.6875)"/>
       <use xlink:href="#TimesNewRomanPSMT-6c" transform="translate(483.927422 0.6875)"/>
       <use xlink:href="#TimesNewRomanPSMT-6f" transform="translate(511.710625 0.6875)"/>
       <use xlink:href="#TimesNewRomanPSMT-29" transform="translate(561.710625 0.6875)"/>
      </g>
     </g>
    </g>
    <g id="xtick_13">
     <g id="line2d_13">
      <g>
       <use xlink:href="#m57b1deeb82" x="945.877858" y="378.770537" style="stroke: #000000; stroke-width: 0.8"/>
      </g>
     </g>
     <g id="text_13">
      <!-- $\mathcal{A}^{*}$(Austin) -->
      <g transform="translate(892.418705 439.961687) rotate(-35) scale(0.16 -0.16)">
       <use xlink:href="#Cmsy10-41" transform="translate(0 0.6875)"/>
       <use xlink:href="#Cmsy10-a4" transform="translate(84.249297 38.951563) scale(0.7)"/>
       <use xlink:href="#TimesNewRomanPSMT-28" transform="translate(125.626641 0.6875)"/>
       <use xlink:href="#TimesNewRomanPSMT-41" transform="translate(158.927422 0.6875)"/>
       <use xlink:href="#TimesNewRomanPSMT-75" transform="translate(231.144219 0.6875)"/>
       <use xlink:href="#TimesNewRomanPSMT-73" transform="translate(281.144219 0.6875)"/>
       <use xlink:href="#TimesNewRomanPSMT-74" transform="translate(320.060234 0.6875)"/>
       <use xlink:href="#TimesNewRomanPSMT-69" transform="translate(347.843437 0.6875)"/>
       <use xlink:href="#TimesNewRomanPSMT-6e" transform="translate(375.626641 0.6875)"/>
       <use xlink:href="#TimesNewRomanPSMT-29" transform="translate(425.626641 0.6875)"/>
      </g>
     </g>
    </g>
    <g id="xtick_14">
     <g id="line2d_14">
      <g>
       <use xlink:href="#m57b1deeb82" x="1007.266089" y="378.770537" style="stroke: #000000; stroke-width: 0.8"/>
      </g>
     </g>
     <g id="text_14">
      <!-- $\mathcal{A}^{*}$(Zandvoort) -->
      <g transform="translate(934.147287 453.727521) rotate(-35) scale(0.16 -0.16)">
       <defs>
        <path id="TimesNewRomanPSMT-5a" d="M 3681 4238 
L 897 256 
L 2634 256 
Q 3034 256 3248 431 
Q 3463 606 3628 1141 
L 3731 1122 
L 3531 0 
L 81 0 
L 81 116 
L 2800 3984 
L 1444 3984 
Q 1106 3984 954 3911 
Q 803 3838 723 3698 
Q 644 3559 578 3178 
L 459 3178 
L 547 4238 
L 3681 4238 
z
" transform="scale(0.015625)"/>
        <path id="TimesNewRomanPSMT-76" d="M 53 2863 
L 1400 2863 
L 1400 2747 
L 1313 2747 
Q 1191 2747 1127 2687 
Q 1063 2628 1063 2528 
Q 1063 2419 1128 2269 
L 1794 688 
L 2463 2328 
Q 2534 2503 2534 2594 
Q 2534 2638 2509 2666 
Q 2475 2713 2422 2730 
Q 2369 2747 2206 2747 
L 2206 2863 
L 3141 2863 
L 3141 2747 
Q 2978 2734 2916 2681 
Q 2806 2588 2719 2369 
L 1703 -88 
L 1575 -88 
L 553 2328 
Q 484 2497 421 2570 
Q 359 2644 263 2694 
Q 209 2722 53 2747 
L 53 2863 
z
" transform="scale(0.015625)"/>
       </defs>
       <use xlink:href="#Cmsy10-41" transform="translate(0 0.6875)"/>
       <use xlink:href="#Cmsy10-a4" transform="translate(84.249297 38.951563) scale(0.7)"/>
       <use xlink:href="#TimesNewRomanPSMT-28" transform="translate(125.626641 0.6875)"/>
       <use xlink:href="#TimesNewRomanPSMT-5a" transform="translate(158.927422 0.6875)"/>
       <use xlink:href="#TimesNewRomanPSMT-61" transform="translate(220.011406 0.6875)"/>
       <use xlink:href="#TimesNewRomanPSMT-6e" transform="translate(264.396172 0.6875)"/>
       <use xlink:href="#TimesNewRomanPSMT-64" transform="translate(314.396172 0.6875)"/>
       <use xlink:href="#TimesNewRomanPSMT-76" transform="translate(364.396172 0.6875)"/>
       <use xlink:href="#TimesNewRomanPSMT-6f" transform="translate(414.396172 0.6875)"/>
       <use xlink:href="#TimesNewRomanPSMT-6f" transform="translate(464.396172 0.6875)"/>
       <use xlink:href="#TimesNewRomanPSMT-72" transform="translate(514.396172 0.6875)"/>
       <use xlink:href="#TimesNewRomanPSMT-74" transform="translate(547.696953 0.6875)"/>
       <use xlink:href="#TimesNewRomanPSMT-29" transform="translate(575.480156 0.6875)"/>
      </g>
     </g>
    </g>
    <g id="xtick_15">
     <g id="line2d_15">
      <g>
       <use xlink:href="#m57b1deeb82" x="1068.654321" y="378.770537" style="stroke: #000000; stroke-width: 0.8"/>
      </g>
     </g>
     <g id="text_15">
      <!-- $\mathcal{A}^{*}$(Catalunya) -->
      <g transform="translate(996.977226 452.718026) rotate(-35) scale(0.16 -0.16)">
       <defs>
        <path id="TimesNewRomanPSMT-79" d="M 38 2863 
L 1372 2863 
L 1372 2747 
L 1306 2747 
Q 1166 2747 1095 2686 
Q 1025 2625 1025 2534 
Q 1025 2413 1128 2197 
L 1825 753 
L 2466 2334 
Q 2519 2463 2519 2588 
Q 2519 2644 2497 2672 
Q 2472 2706 2419 2726 
Q 2366 2747 2231 2747 
L 2231 2863 
L 3163 2863 
L 3163 2747 
Q 3047 2734 2984 2696 
Q 2922 2659 2847 2556 
Q 2819 2513 2741 2316 
L 1575 -541 
Q 1406 -956 1132 -1168 
Q 859 -1381 606 -1381 
Q 422 -1381 303 -1275 
Q 184 -1169 184 -1031 
Q 184 -900 270 -820 
Q 356 -741 506 -741 
Q 609 -741 788 -809 
Q 913 -856 944 -856 
Q 1038 -856 1148 -759 
Q 1259 -663 1372 -384 
L 1575 113 
L 547 2272 
Q 500 2369 397 2513 
Q 319 2622 269 2659 
Q 197 2709 38 2747 
L 38 2863 
z
" transform="scale(0.015625)"/>
       </defs>
       <use xlink:href="#Cmsy10-41" transform="translate(0 0.6875)"/>
       <use xlink:href="#Cmsy10-a4" transform="translate(84.249297 38.951563) scale(0.7)"/>
       <use xlink:href="#TimesNewRomanPSMT-28" transform="translate(125.626641 0.6875)"/>
       <use xlink:href="#TimesNewRomanPSMT-43" transform="translate(158.927422 0.6875)"/>
       <use xlink:href="#TimesNewRomanPSMT-61" transform="translate(225.626641 0.6875)"/>
       <use xlink:href="#TimesNewRomanPSMT-74" transform="translate(270.011406 0.6875)"/>
       <use xlink:href="#TimesNewRomanPSMT-61" transform="translate(297.794609 0.6875)"/>
       <use xlink:href="#TimesNewRomanPSMT-6c" transform="translate(342.179375 0.6875)"/>
       <use xlink:href="#TimesNewRomanPSMT-75" transform="translate(369.962578 0.6875)"/>
       <use xlink:href="#TimesNewRomanPSMT-6e" transform="translate(419.962578 0.6875)"/>
       <use xlink:href="#TimesNewRomanPSMT-79" transform="translate(469.962578 0.6875)"/>
       <use xlink:href="#TimesNewRomanPSMT-61" transform="translate(519.962578 0.6875)"/>
       <use xlink:href="#TimesNewRomanPSMT-29" transform="translate(564.347344 0.6875)"/>
      </g>
     </g>
    </g>
    <g id="xtick_16">
     <g id="line2d_16">
      <g>
       <use xlink:href="#m57b1deeb82" x="1130.042552" y="378.770537" style="stroke: #000000; stroke-width: 0.8"/>
      </g>
     </g>
     <g id="text_16">
      <!-- $\mathcal{A}^{*}$(Brands Hatch) -->
      <g transform="translate(1039.754323 465.749683) rotate(-35) scale(0.16 -0.16)">
       <defs>
        <path id="TimesNewRomanPSMT-48" d="M 1316 2272 
L 3284 2272 
L 3284 3484 
Q 3284 3809 3244 3913 
Q 3213 3991 3113 4047 
Q 2978 4122 2828 4122 
L 2678 4122 
L 2678 4238 
L 4491 4238 
L 4491 4122 
L 4341 4122 
Q 4191 4122 4056 4050 
Q 3956 4000 3920 3898 
Q 3884 3797 3884 3484 
L 3884 750 
Q 3884 428 3925 325 
Q 3956 247 4053 191 
Q 4191 116 4341 116 
L 4491 116 
L 4491 0 
L 2678 0 
L 2678 116 
L 2828 116 
Q 3088 116 3206 269 
Q 3284 369 3284 750 
L 3284 2041 
L 1316 2041 
L 1316 750 
Q 1316 428 1356 325 
Q 1388 247 1488 191 
Q 1622 116 1772 116 
L 1925 116 
L 1925 0 
L 109 0 
L 109 116 
L 259 116 
Q 522 116 641 269 
Q 716 369 716 750 
L 716 3484 
Q 716 3809 675 3913 
Q 644 3991 547 4047 
Q 409 4122 259 4122 
L 109 4122 
L 109 4238 
L 1925 4238 
L 1925 4122 
L 1772 4122 
Q 1622 4122 1488 4050 
Q 1391 4000 1353 3898 
Q 1316 3797 1316 3484 
L 1316 2272 
z
" transform="scale(0.015625)"/>
       </defs>
       <use xlink:href="#Cmsy10-41" transform="translate(0 0.6875)"/>
       <use xlink:href="#Cmsy10-a4" transform="translate(84.249297 38.951563) scale(0.7)"/>
       <use xlink:href="#TimesNewRomanPSMT-28" transform="translate(125.626641 0.6875)"/>
       <use xlink:href="#TimesNewRomanPSMT-42" transform="translate(158.927422 0.6875)"/>
       <use xlink:href="#TimesNewRomanPSMT-72" transform="translate(225.626641 0.6875)"/>
       <use xlink:href="#TimesNewRomanPSMT-61" transform="translate(258.927422 0.6875)"/>
       <use xlink:href="#TimesNewRomanPSMT-6e" transform="translate(303.312187 0.6875)"/>
       <use xlink:href="#TimesNewRomanPSMT-64" transform="translate(353.312187 0.6875)"/>
       <use xlink:href="#TimesNewRomanPSMT-73" transform="translate(403.312187 0.6875)"/>
       <use xlink:href="#TimesNewRomanPSMT-20" transform="translate(442.228203 0.6875)"/>
       <use xlink:href="#TimesNewRomanPSMT-48" transform="translate(467.228203 0.6875)"/>
       <use xlink:href="#TimesNewRomanPSMT-61" transform="translate(539.445 0.6875)"/>
       <use xlink:href="#TimesNewRomanPSMT-74" transform="translate(583.829766 0.6875)"/>
       <use xlink:href="#TimesNewRomanPSMT-63" transform="translate(611.612969 0.6875)"/>
       <use xlink:href="#TimesNewRomanPSMT-68" transform="translate(655.997734 0.6875)"/>
       <use xlink:href="#TimesNewRomanPSMT-29" transform="translate(705.997734 0.6875)"/>
      </g>
     </g>
    </g>
    <g id="xtick_17">
     <g id="line2d_17">
      <g>
       <use xlink:href="#m57b1deeb82" x="1191.430783" y="378.770537" style="stroke: #000000; stroke-width: 0.8"/>
      </g>
     </g>
     <g id="text_17">
      <!-- $\mathcal{A}^{*}$(Sepang) -->
      <g transform="translate(1134.301829 442.531309) rotate(-35) scale(0.16 -0.16)">
       <defs>
        <path id="TimesNewRomanPSMT-67" d="M 966 1044 
Q 703 1172 562 1401 
Q 422 1631 422 1909 
Q 422 2334 742 2640 
Q 1063 2947 1563 2947 
Q 1972 2947 2272 2747 
L 2878 2747 
Q 3013 2747 3034 2739 
Q 3056 2731 3066 2713 
Q 3084 2684 3084 2613 
Q 3084 2531 3069 2500 
Q 3059 2484 3036 2475 
Q 3013 2466 2878 2466 
L 2506 2466 
Q 2681 2241 2681 1891 
Q 2681 1491 2375 1206 
Q 2069 922 1553 922 
Q 1341 922 1119 984 
Q 981 866 932 777 
Q 884 688 884 625 
Q 884 572 936 522 
Q 988 472 1138 450 
Q 1225 438 1575 428 
Q 2219 413 2409 384 
Q 2700 344 2873 169 
Q 3047 -6 3047 -263 
Q 3047 -616 2716 -925 
Q 2228 -1381 1444 -1381 
Q 841 -1381 425 -1109 
Q 191 -953 191 -784 
Q 191 -709 225 -634 
Q 278 -519 444 -313 
Q 466 -284 763 25 
Q 600 122 533 198 
Q 466 275 466 372 
Q 466 481 555 628 
Q 644 775 966 1044 
z
M 1509 2797 
Q 1278 2797 1122 2612 
Q 966 2428 966 2047 
Q 966 1553 1178 1281 
Q 1341 1075 1591 1075 
Q 1828 1075 1981 1253 
Q 2134 1431 2134 1813 
Q 2134 2309 1919 2591 
Q 1759 2797 1509 2797 
z
M 934 0 
Q 788 -159 713 -296 
Q 638 -434 638 -550 
Q 638 -700 819 -813 
Q 1131 -1006 1722 -1006 
Q 2284 -1006 2551 -807 
Q 2819 -609 2819 -384 
Q 2819 -222 2659 -153 
Q 2497 -84 2016 -72 
Q 1313 -53 934 0 
z
" transform="scale(0.015625)"/>
       </defs>
       <use xlink:href="#Cmsy10-41" transform="translate(0 0.6875)"/>
       <use xlink:href="#Cmsy10-a4" transform="translate(84.249297 38.951563) scale(0.7)"/>
       <use xlink:href="#TimesNewRomanPSMT-28" transform="translate(125.626641 0.6875)"/>
       <use xlink:href="#TimesNewRomanPSMT-53" transform="translate(158.927422 0.6875)"/>
       <use xlink:href="#TimesNewRomanPSMT-65" transform="translate(214.542656 0.6875)"/>
       <use xlink:href="#TimesNewRomanPSMT-70" transform="translate(258.927422 0.6875)"/>
       <use xlink:href="#TimesNewRomanPSMT-61" transform="translate(308.927422 0.6875)"/>
       <use xlink:href="#TimesNewRomanPSMT-6e" transform="translate(353.312187 0.6875)"/>
       <use xlink:href="#TimesNewRomanPSMT-67" transform="translate(403.312187 0.6875)"/>
       <use xlink:href="#TimesNewRomanPSMT-29" transform="translate(453.312187 0.6875)"/>
      </g>
     </g>
    </g>
    <g id="text_18">
     <!-- Architecture -->
     <g transform="translate(602.119447 486.520598) scale(0.2 -0.2)">
      <use xlink:href="#TimesNewRomanPSMT-41"/>
      <use xlink:href="#TimesNewRomanPSMT-72" transform="translate(72.216797 0)"/>
      <use xlink:href="#TimesNewRomanPSMT-63" transform="translate(105.517578 0)"/>
      <use xlink:href="#TimesNewRomanPSMT-68" transform="translate(149.902344 0)"/>
      <use xlink:href="#TimesNewRomanPSMT-69" transform="translate(199.902344 0)"/>
      <use xlink:href="#TimesNewRomanPSMT-74" transform="translate(227.685547 0)"/>
      <use xlink:href="#TimesNewRomanPSMT-65" transform="translate(255.46875 0)"/>
      <use xlink:href="#TimesNewRomanPSMT-63" transform="translate(299.853516 0)"/>
      <use xlink:href="#TimesNewRomanPSMT-74" transform="translate(344.238281 0)"/>
      <use xlink:href="#TimesNewRomanPSMT-75" transform="translate(372.021484 0)"/>
      <use xlink:href="#TimesNewRomanPSMT-72" transform="translate(422.021484 0)"/>
      <use xlink:href="#TimesNewRomanPSMT-65" transform="translate(455.322266 0)"/>
     </g>
    </g>
   </g>
   <g id="matplotlib.axis_2">
    <g id="ytick_1">
     <g id="line2d_18">
      <path d="M 68.903125 363.103401 
L 1235.27952 363.103401 
" clip-path="url(#pcb1dd46703)" style="fill: none; stroke-dasharray: 2.96,1.28; stroke-dashoffset: 0; stroke: #b0b0b0; stroke-opacity: 0.35; stroke-width: 0.8"/>
     </g>
     <g id="line2d_19">
      <defs>
       <path id="m3eb1e88d97" d="M 0 0 
L -3.5 0 
" style="stroke: #000000; stroke-width: 0.8"/>
      </defs>
      <g>
       <use xlink:href="#m3eb1e88d97" x="68.903125" y="363.103401" style="stroke: #000000; stroke-width: 0.8"/>
      </g>
     </g>
     <g id="text_19">
      <!-- 0.0 -->
      <g transform="translate(39.403125 369.352776) scale(0.18 -0.18)">
       <defs>
        <path id="TimesNewRomanPSMT-30" d="M 231 2094 
Q 231 2819 450 3342 
Q 669 3866 1031 4122 
Q 1313 4325 1613 4325 
Q 2100 4325 2488 3828 
Q 2972 3213 2972 2159 
Q 2972 1422 2759 906 
Q 2547 391 2217 158 
Q 1888 -75 1581 -75 
Q 975 -75 572 641 
Q 231 1244 231 2094 
z
M 844 2016 
Q 844 1141 1059 588 
Q 1238 122 1591 122 
Q 1759 122 1940 273 
Q 2122 425 2216 781 
Q 2359 1319 2359 2297 
Q 2359 3022 2209 3506 
Q 2097 3866 1919 4016 
Q 1791 4119 1609 4119 
Q 1397 4119 1231 3928 
Q 1006 3669 925 3112 
Q 844 2556 844 2016 
z
" transform="scale(0.015625)"/>
        <path id="TimesNewRomanPSMT-2e" d="M 800 606 
Q 947 606 1047 504 
Q 1147 403 1147 259 
Q 1147 116 1045 14 
Q 944 -88 800 -88 
Q 656 -88 554 14 
Q 453 116 453 259 
Q 453 406 554 506 
Q 656 606 800 606 
z
" transform="scale(0.015625)"/>
       </defs>
       <use xlink:href="#TimesNewRomanPSMT-30"/>
       <use xlink:href="#TimesNewRomanPSMT-2e" transform="translate(50 0)"/>
       <use xlink:href="#TimesNewRomanPSMT-30" transform="translate(75 0)"/>
      </g>
     </g>
    </g>
    <g id="ytick_2">
     <g id="line2d_20">
      <path d="M 68.903125 300.434856 
L 1235.27952 300.434856 
" clip-path="url(#pcb1dd46703)" style="fill: none; stroke-dasharray: 2.96,1.28; stroke-dashoffset: 0; stroke: #b0b0b0; stroke-opacity: 0.35; stroke-width: 0.8"/>
     </g>
     <g id="line2d_21">
      <g>
       <use xlink:href="#m3eb1e88d97" x="68.903125" y="300.434856" style="stroke: #000000; stroke-width: 0.8"/>
      </g>
     </g>
     <g id="text_20">
      <!-- 0.2 -->
      <g transform="translate(39.403125 306.684231) scale(0.18 -0.18)">
       <defs>
        <path id="TimesNewRomanPSMT-32" d="M 2934 816 
L 2638 0 
L 138 0 
L 138 116 
Q 1241 1122 1691 1759 
Q 2141 2397 2141 2925 
Q 2141 3328 1894 3587 
Q 1647 3847 1303 3847 
Q 991 3847 742 3664 
Q 494 3481 375 3128 
L 259 3128 
Q 338 3706 661 4015 
Q 984 4325 1469 4325 
Q 1984 4325 2329 3994 
Q 2675 3663 2675 3213 
Q 2675 2891 2525 2569 
Q 2294 2063 1775 1497 
Q 997 647 803 472 
L 1909 472 
Q 2247 472 2383 497 
Q 2519 522 2628 598 
Q 2738 675 2819 816 
L 2934 816 
z
" transform="scale(0.015625)"/>
       </defs>
       <use xlink:href="#TimesNewRomanPSMT-30"/>
       <use xlink:href="#TimesNewRomanPSMT-2e" transform="translate(50 0)"/>
       <use xlink:href="#TimesNewRomanPSMT-32" transform="translate(75 0)"/>
      </g>
     </g>
    </g>
    <g id="ytick_3">
     <g id="line2d_22">
      <path d="M 68.903125 237.766311 
L 1235.27952 237.766311 
" clip-path="url(#pcb1dd46703)" style="fill: none; stroke-dasharray: 2.96,1.28; stroke-dashoffset: 0; stroke: #b0b0b0; stroke-opacity: 0.35; stroke-width: 0.8"/>
     </g>
     <g id="line2d_23">
      <g>
       <use xlink:href="#m3eb1e88d97" x="68.903125" y="237.766311" style="stroke: #000000; stroke-width: 0.8"/>
      </g>
     </g>
     <g id="text_21">
      <!-- 0.4 -->
      <g transform="translate(39.403125 244.015686) scale(0.18 -0.18)">
       <defs>
        <path id="TimesNewRomanPSMT-34" d="M 2978 1563 
L 2978 1119 
L 2409 1119 
L 2409 0 
L 1894 0 
L 1894 1119 
L 100 1119 
L 100 1519 
L 2066 4325 
L 2409 4325 
L 2409 1563 
L 2978 1563 
z
M 1894 1563 
L 1894 3666 
L 406 1563 
L 1894 1563 
z
" transform="scale(0.015625)"/>
       </defs>
       <use xlink:href="#TimesNewRomanPSMT-30"/>
       <use xlink:href="#TimesNewRomanPSMT-2e" transform="translate(50 0)"/>
       <use xlink:href="#TimesNewRomanPSMT-34" transform="translate(75 0)"/>
      </g>
     </g>
    </g>
    <g id="ytick_4">
     <g id="line2d_24">
      <path d="M 68.903125 175.097766 
L 1235.27952 175.097766 
" clip-path="url(#pcb1dd46703)" style="fill: none; stroke-dasharray: 2.96,1.28; stroke-dashoffset: 0; stroke: #b0b0b0; stroke-opacity: 0.35; stroke-width: 0.8"/>
     </g>
     <g id="line2d_25">
      <g>
       <use xlink:href="#m3eb1e88d97" x="68.903125" y="175.097766" style="stroke: #000000; stroke-width: 0.8"/>
      </g>
     </g>
     <g id="text_22">
      <!-- 0.6 -->
      <g transform="translate(39.403125 181.347141) scale(0.18 -0.18)">
       <defs>
        <path id="TimesNewRomanPSMT-36" d="M 2869 4325 
L 2869 4209 
Q 2456 4169 2195 4045 
Q 1934 3922 1679 3669 
Q 1425 3416 1258 3105 
Q 1091 2794 978 2366 
Q 1428 2675 1881 2675 
Q 2316 2675 2634 2325 
Q 2953 1975 2953 1425 
Q 2953 894 2631 456 
Q 2244 -75 1606 -75 
Q 1172 -75 869 213 
Q 275 772 275 1663 
Q 275 2231 503 2743 
Q 731 3256 1154 3653 
Q 1578 4050 1965 4187 
Q 2353 4325 2688 4325 
L 2869 4325 
z
M 925 2138 
Q 869 1716 869 1456 
Q 869 1156 980 804 
Q 1091 453 1309 247 
Q 1469 100 1697 100 
Q 1969 100 2183 356 
Q 2397 613 2397 1088 
Q 2397 1622 2184 2012 
Q 1972 2403 1581 2403 
Q 1463 2403 1327 2353 
Q 1191 2303 925 2138 
z
" transform="scale(0.015625)"/>
       </defs>
       <use xlink:href="#TimesNewRomanPSMT-30"/>
       <use xlink:href="#TimesNewRomanPSMT-2e" transform="translate(50 0)"/>
       <use xlink:href="#TimesNewRomanPSMT-36" transform="translate(75 0)"/>
      </g>
     </g>
    </g>
    <g id="ytick_5">
     <g id="line2d_26">
      <path d="M 68.903125 112.429221 
L 1235.27952 112.429221 
" clip-path="url(#pcb1dd46703)" style="fill: none; stroke-dasharray: 2.96,1.28; stroke-dashoffset: 0; stroke: #b0b0b0; stroke-opacity: 0.35; stroke-width: 0.8"/>
     </g>
     <g id="line2d_27">
      <g>
       <use xlink:href="#m3eb1e88d97" x="68.903125" y="112.429221" style="stroke: #000000; stroke-width: 0.8"/>
      </g>
     </g>
     <g id="text_23">
      <!-- 0.8 -->
      <g transform="translate(39.403125 118.678596) scale(0.18 -0.18)">
       <defs>
        <path id="TimesNewRomanPSMT-38" d="M 1228 2134 
Q 725 2547 579 2797 
Q 434 3047 434 3316 
Q 434 3728 753 4026 
Q 1072 4325 1600 4325 
Q 2113 4325 2425 4047 
Q 2738 3769 2738 3413 
Q 2738 3175 2569 2928 
Q 2400 2681 1866 2347 
Q 2416 1922 2594 1678 
Q 2831 1359 2831 1006 
Q 2831 559 2490 242 
Q 2150 -75 1597 -75 
Q 994 -75 656 303 
Q 388 606 388 966 
Q 388 1247 577 1523 
Q 766 1800 1228 2134 
z
M 1719 2469 
Q 2094 2806 2194 3001 
Q 2294 3197 2294 3444 
Q 2294 3772 2109 3958 
Q 1925 4144 1606 4144 
Q 1288 4144 1088 3959 
Q 888 3775 888 3528 
Q 888 3366 970 3203 
Q 1053 3041 1206 2894 
L 1719 2469 
z
M 1375 2016 
Q 1116 1797 991 1539 
Q 866 1281 866 981 
Q 866 578 1086 336 
Q 1306 94 1647 94 
Q 1984 94 2187 284 
Q 2391 475 2391 747 
Q 2391 972 2272 1150 
Q 2050 1481 1375 2016 
z
" transform="scale(0.015625)"/>
       </defs>
       <use xlink:href="#TimesNewRomanPSMT-30"/>
       <use xlink:href="#TimesNewRomanPSMT-2e" transform="translate(50 0)"/>
       <use xlink:href="#TimesNewRomanPSMT-38" transform="translate(75 0)"/>
      </g>
     </g>
    </g>
    <g id="ytick_6">
     <g id="line2d_28">
      <path d="M 68.903125 49.760676 
L 1235.27952 49.760676 
" clip-path="url(#pcb1dd46703)" style="fill: none; stroke-dasharray: 2.96,1.28; stroke-dashoffset: 0; stroke: #b0b0b0; stroke-opacity: 0.35; stroke-width: 0.8"/>
     </g>
     <g id="line2d_29">
      <g>
       <use xlink:href="#m3eb1e88d97" x="68.903125" y="49.760676" style="stroke: #000000; stroke-width: 0.8"/>
      </g>
     </g>
     <g id="text_24">
      <!-- 1.0 -->
      <g transform="translate(39.403125 56.010051) scale(0.18 -0.18)">
       <defs>
        <path id="TimesNewRomanPSMT-31" d="M 750 3822 
L 1781 4325 
L 1884 4325 
L 1884 747 
Q 1884 391 1914 303 
Q 1944 216 2037 169 
Q 2131 122 2419 116 
L 2419 0 
L 825 0 
L 825 116 
Q 1125 122 1212 167 
Q 1300 213 1334 289 
Q 1369 366 1369 747 
L 1369 3034 
Q 1369 3497 1338 3628 
Q 1316 3728 1258 3775 
Q 1200 3822 1119 3822 
Q 1003 3822 797 3725 
L 750 3822 
z
" transform="scale(0.015625)"/>
       </defs>
       <use xlink:href="#TimesNewRomanPSMT-31"/>
       <use xlink:href="#TimesNewRomanPSMT-2e" transform="translate(50 0)"/>
       <use xlink:href="#TimesNewRomanPSMT-30" transform="translate(75 0)"/>
      </g>
     </g>
    </g>
    <g id="text_25">
     <!-- Normalized Safety-Cost Value -->
     <g transform="translate(21.0875 328.442976) rotate(-90) scale(0.2 -0.2)">
      <defs>
       <path id="TimesNewRomanPSMT-4e" d="M -84 4238 
L 1066 4238 
L 3656 1059 
L 3656 3503 
Q 3656 3894 3569 3991 
Q 3453 4122 3203 4122 
L 3056 4122 
L 3056 4238 
L 4531 4238 
L 4531 4122 
L 4381 4122 
Q 4113 4122 4000 3959 
Q 3931 3859 3931 3503 
L 3931 -69 
L 3819 -69 
L 1025 3344 
L 1025 734 
Q 1025 344 1109 247 
Q 1228 116 1475 116 
L 1625 116 
L 1625 0 
L 150 0 
L 150 116 
L 297 116 
Q 569 116 681 278 
Q 750 378 750 734 
L 750 3681 
Q 566 3897 470 3965 
Q 375 4034 191 4094 
Q 100 4122 -84 4122 
L -84 4238 
z
" transform="scale(0.015625)"/>
       <path id="TimesNewRomanPSMT-6d" d="M 1050 2338 
Q 1363 2650 1419 2697 
Q 1559 2816 1721 2881 
Q 1884 2947 2044 2947 
Q 2313 2947 2506 2790 
Q 2700 2634 2766 2338 
Q 3088 2713 3309 2830 
Q 3531 2947 3766 2947 
Q 3994 2947 4170 2830 
Q 4347 2713 4450 2447 
Q 4519 2266 4519 1878 
L 4519 647 
Q 4519 378 4559 278 
Q 4591 209 4675 161 
Q 4759 113 4950 113 
L 4950 0 
L 3538 0 
L 3538 113 
L 3597 113 
Q 3781 113 3884 184 
Q 3956 234 3988 344 
Q 4000 397 4000 647 
L 4000 1878 
Q 4000 2228 3916 2372 
Q 3794 2572 3525 2572 
Q 3359 2572 3192 2489 
Q 3025 2406 2788 2181 
L 2781 2147 
L 2788 2013 
L 2788 647 
Q 2788 353 2820 281 
Q 2853 209 2943 161 
Q 3034 113 3253 113 
L 3253 0 
L 1806 0 
L 1806 113 
Q 2044 113 2133 169 
Q 2222 225 2256 338 
Q 2272 391 2272 647 
L 2272 1878 
Q 2272 2228 2169 2381 
Q 2031 2581 1784 2581 
Q 1616 2581 1450 2491 
Q 1191 2353 1050 2181 
L 1050 647 
Q 1050 366 1089 281 
Q 1128 197 1204 155 
Q 1281 113 1516 113 
L 1516 0 
L 100 0 
L 100 113 
Q 297 113 375 155 
Q 453 197 493 289 
Q 534 381 534 647 
L 534 1741 
Q 534 2213 506 2350 
Q 484 2453 437 2492 
Q 391 2531 309 2531 
Q 222 2531 100 2484 
L 53 2597 
L 916 2947 
L 1050 2947 
L 1050 2338 
z
" transform="scale(0.015625)"/>
       <path id="TimesNewRomanPSMT-7a" d="M 2688 878 
L 2653 0 
L 128 0 
L 128 113 
L 2028 2644 
L 1091 2644 
Q 788 2644 694 2605 
Q 600 2566 541 2456 
Q 456 2300 444 2069 
L 319 2069 
L 338 2863 
L 2738 2863 
L 2738 2747 
L 819 209 
L 1863 209 
Q 2191 209 2308 264 
Q 2425 319 2497 456 
Q 2547 556 2581 878 
L 2688 878 
z
" transform="scale(0.015625)"/>
       <path id="TimesNewRomanPSMT-66" d="M 1319 2638 
L 1319 756 
Q 1319 356 1406 250 
Q 1522 113 1716 113 
L 1975 113 
L 1975 0 
L 266 0 
L 266 113 
L 394 113 
Q 519 113 622 175 
Q 725 238 764 344 
Q 803 450 803 756 
L 803 2638 
L 247 2638 
L 247 2863 
L 803 2863 
L 803 3050 
Q 803 3478 940 3775 
Q 1078 4072 1361 4255 
Q 1644 4438 1997 4438 
Q 2325 4438 2600 4225 
Q 2781 4084 2781 3909 
Q 2781 3816 2700 3733 
Q 2619 3650 2525 3650 
Q 2453 3650 2373 3701 
Q 2294 3753 2178 3923 
Q 2063 4094 1966 4153 
Q 1869 4213 1750 4213 
Q 1606 4213 1506 4136 
Q 1406 4059 1362 3898 
Q 1319 3738 1319 3069 
L 1319 2863 
L 2056 2863 
L 2056 2638 
L 1319 2638 
z
" transform="scale(0.015625)"/>
       <path id="TimesNewRomanPSMT-2d" d="M 259 1672 
L 1875 1672 
L 1875 1200 
L 259 1200 
L 259 1672 
z
" transform="scale(0.015625)"/>
       <path id="TimesNewRomanPSMT-56" d="M 4544 4238 
L 4544 4122 
Q 4319 4081 4203 3978 
Q 4038 3825 3909 3509 
L 2431 -97 
L 2316 -97 
L 728 3556 
Q 606 3838 556 3900 
Q 478 3997 364 4051 
Q 250 4106 56 4122 
L 56 4238 
L 1788 4238 
L 1788 4122 
Q 1494 4094 1406 4022 
Q 1319 3950 1319 3838 
Q 1319 3681 1463 3350 
L 2541 866 
L 3541 3319 
Q 3688 3681 3688 3822 
Q 3688 3913 3597 3995 
Q 3506 4078 3291 4113 
Q 3275 4116 3238 4122 
L 3238 4238 
L 4544 4238 
z
" transform="scale(0.015625)"/>
      </defs>
      <use xlink:href="#TimesNewRomanPSMT-4e"/>
      <use xlink:href="#TimesNewRomanPSMT-6f" transform="translate(72.216797 0)"/>
      <use xlink:href="#TimesNewRomanPSMT-72" transform="translate(122.216797 0)"/>
      <use xlink:href="#TimesNewRomanPSMT-6d" transform="translate(155.517578 0)"/>
      <use xlink:href="#TimesNewRomanPSMT-61" transform="translate(233.300781 0)"/>
      <use xlink:href="#TimesNewRomanPSMT-6c" transform="translate(277.685547 0)"/>
      <use xlink:href="#TimesNewRomanPSMT-69" transform="translate(305.46875 0)"/>
      <use xlink:href="#TimesNewRomanPSMT-7a" transform="translate(333.251953 0)"/>
      <use xlink:href="#TimesNewRomanPSMT-65" transform="translate(377.636719 0)"/>
      <use xlink:href="#TimesNewRomanPSMT-64" transform="translate(422.021484 0)"/>
      <use xlink:href="#TimesNewRomanPSMT-20" transform="translate(472.021484 0)"/>
      <use xlink:href="#TimesNewRomanPSMT-53" transform="translate(497.021484 0)"/>
      <use xlink:href="#TimesNewRomanPSMT-61" transform="translate(552.636719 0)"/>
      <use xlink:href="#TimesNewRomanPSMT-66" transform="translate(597.021484 0)"/>
      <use xlink:href="#TimesNewRomanPSMT-65" transform="translate(630.322266 0)"/>
      <use xlink:href="#TimesNewRomanPSMT-74" transform="translate(674.707031 0)"/>
      <use xlink:href="#TimesNewRomanPSMT-79" transform="translate(702.490234 0)"/>
      <use xlink:href="#TimesNewRomanPSMT-2d" transform="translate(752.490234 0)"/>
      <use xlink:href="#TimesNewRomanPSMT-43" transform="translate(785.791016 0)"/>
      <use xlink:href="#TimesNewRomanPSMT-6f" transform="translate(852.490234 0)"/>
      <use xlink:href="#TimesNewRomanPSMT-73" transform="translate(902.490234 0)"/>
      <use xlink:href="#TimesNewRomanPSMT-74" transform="translate(941.40625 0)"/>
      <use xlink:href="#TimesNewRomanPSMT-20" transform="translate(969.189453 0)"/>
      <use xlink:href="#TimesNewRomanPSMT-56" transform="translate(992.439453 0)"/>
      <use xlink:href="#TimesNewRomanPSMT-61" transform="translate(1053.53125 0)"/>
      <use xlink:href="#TimesNewRomanPSMT-6c" transform="translate(1097.916016 0)"/>
      <use xlink:href="#TimesNewRomanPSMT-75" transform="translate(1125.699219 0)"/>
      <use xlink:href="#TimesNewRomanPSMT-65" transform="translate(1175.699219 0)"/>
     </g>
    </g>
   </g>
   <g id="patch_3">
    <path d="M 95.212367 321.113983 
L 130.291356 321.113983 
L 130.291356 210.878251 
L 95.212367 210.878251 
L 95.212367 321.113983 
z
" clip-path="url(#pcb1dd46703)" style="fill: #404040; opacity: 0.62; stroke: #404040; stroke-linejoin: miter"/>
   </g>
   <g id="line2d_30">
    <path d="M 112.751862 321.113983 
L 112.751862 355.958779 
" clip-path="url(#pcb1dd46703)" style="fill: none; stroke: #404040; stroke-width: 1.2; stroke-linecap: square"/>
   </g>
   <g id="line2d_31">
    <path d="M 112.751862 210.878251 
L 112.751862 49.760676 
" clip-path="url(#pcb1dd46703)" style="fill: none; stroke: #404040; stroke-width: 1.2; stroke-linecap: square"/>
   </g>
   <g id="line2d_32">
    <path d="M 103.982114 355.958779 
L 121.521609 355.958779 
" clip-path="url(#pcb1dd46703)" style="fill: none; stroke: #404040; stroke-width: 1.2; stroke-linecap: square"/>
   </g>
   <g id="line2d_33">
    <path d="M 103.982114 49.760676 
L 121.521609 49.760676 
" clip-path="url(#pcb1dd46703)" style="fill: none; stroke: #404040; stroke-width: 1.2; stroke-linecap: square"/>
   </g>
   <g id="patch_4">
    <path d="M 156.600598 313.705835 
L 191.679588 313.705835 
L 191.679588 210.106416 
L 156.600598 210.106416 
L 156.600598 313.705835 
z
" clip-path="url(#pcb1dd46703)" style="fill: #404040; opacity: 0.62; stroke: #404040; stroke-linejoin: miter"/>
   </g>
   <g id="line2d_34">
    <path d="M 174.140093 313.705835 
L 174.140093 336.870842 
" clip-path="url(#pcb1dd46703)" style="fill: none; stroke: #404040; stroke-width: 1.2; stroke-linecap: square"/>
   </g>
   <g id="line2d_35">
    <path d="M 174.140093 210.106416 
L 174.140093 62.093071 
" clip-path="url(#pcb1dd46703)" style="fill: none; stroke: #404040; stroke-width: 1.2; stroke-linecap: square"/>
   </g>
   <g id="line2d_36">
    <path d="M 165.370346 336.870842 
L 182.90984 336.870842 
" clip-path="url(#pcb1dd46703)" style="fill: none; stroke: #404040; stroke-width: 1.2; stroke-linecap: square"/>
   </g>
   <g id="line2d_37">
    <path d="M 165.370346 62.093071 
L 182.90984 62.093071 
" clip-path="url(#pcb1dd46703)" style="fill: none; stroke: #404040; stroke-width: 1.2; stroke-linecap: square"/>
   </g>
   <g id="patch_5">
    <path d="M 217.98883 310.071524 
L 253.067819 310.071524 
L 253.067819 176.625946 
L 217.98883 176.625946 
L 217.98883 310.071524 
z
" clip-path="url(#pcb1dd46703)" style="fill: #404040; opacity: 0.62; stroke: #404040; stroke-linejoin: miter"/>
   </g>
   <g id="line2d_38">
    <path d="M 235.528324 310.071524 
L 235.528324 339.011287 
" clip-path="url(#pcb1dd46703)" style="fill: none; stroke: #404040; stroke-width: 1.2; stroke-linecap: square"/>
   </g>
   <g id="line2d_39">
    <path d="M 235.528324 176.625946 
L 235.528324 54.832652 
" clip-path="url(#pcb1dd46703)" style="fill: none; stroke: #404040; stroke-width: 1.2; stroke-linecap: square"/>
   </g>
   <g id="line2d_40">
    <path d="M 226.758577 339.011287 
L 244.298072 339.011287 
" clip-path="url(#pcb1dd46703)" style="fill: none; stroke: #404040; stroke-width: 1.2; stroke-linecap: square"/>
   </g>
   <g id="line2d_41">
    <path d="M 226.758577 54.832652 
L 244.298072 54.832652 
" clip-path="url(#pcb1dd46703)" style="fill: none; stroke: #404040; stroke-width: 1.2; stroke-linecap: square"/>
   </g>
   <g id="patch_6">
    <path d="M 279.377061 336.991507 
L 314.45605 336.991507 
L 314.45605 207.146501 
L 279.377061 207.146501 
L 279.377061 336.991507 
z
" clip-path="url(#pcb1dd46703)" style="fill: #404040; opacity: 0.62; stroke: #404040; stroke-linejoin: miter"/>
   </g>
   <g id="line2d_42">
    <path d="M 296.916556 336.991507 
L 296.916556 351.782448 
" clip-path="url(#pcb1dd46703)" style="fill: none; stroke: #404040; stroke-width: 1.2; stroke-linecap: square"/>
   </g>
   <g id="line2d_43">
    <path d="M 296.916556 207.146501 
L 296.916556 63.263989 
" clip-path="url(#pcb1dd46703)" style="fill: none; stroke: #404040; stroke-width: 1.2; stroke-linecap: square"/>
   </g>
   <g id="line2d_44">
    <path d="M 288.146808 351.782448 
L 305.686303 351.782448 
" clip-path="url(#pcb1dd46703)" style="fill: none; stroke: #404040; stroke-width: 1.2; stroke-linecap: square"/>
   </g>
   <g id="line2d_45">
    <path d="M 288.146808 63.263989 
L 305.686303 63.263989 
" clip-path="url(#pcb1dd46703)" style="fill: none; stroke: #404040; stroke-width: 1.2; stroke-linecap: square"/>
   </g>
   <g id="patch_7">
    <path d="M 340.765292 333.021577 
L 375.844282 333.021577 
L 375.844282 178.206821 
L 340.765292 178.206821 
L 340.765292 333.021577 
z
" clip-path="url(#pcb1dd46703)" style="fill: #404040; opacity: 0.62; stroke: #404040; stroke-linejoin: miter"/>
   </g>
   <g id="line2d_46">
    <path d="M 358.304787 333.021577 
L 358.304787 356.006041 
" clip-path="url(#pcb1dd46703)" style="fill: none; stroke: #404040; stroke-width: 1.2; stroke-linecap: square"/>
   </g>
   <g id="line2d_47">
    <path d="M 358.304787 178.206821 
L 358.304787 49.760676 
" clip-path="url(#pcb1dd46703)" style="fill: none; stroke: #404040; stroke-width: 1.2; stroke-linecap: square"/>
   </g>
   <g id="line2d_48">
    <path d="M 349.53504 356.006041 
L 367.074534 356.006041 
" clip-path="url(#pcb1dd46703)" style="fill: none; stroke: #404040; stroke-width: 1.2; stroke-linecap: square"/>
   </g>
   <g id="line2d_49">
    <path d="M 349.53504 49.760676 
L 367.074534 49.760676 
" clip-path="url(#pcb1dd46703)" style="fill: none; stroke: #404040; stroke-width: 1.2; stroke-linecap: square"/>
   </g>
   <g id="patch_8">
    <path d="M 402.153524 313.543308 
L 437.232513 313.543308 
L 437.232513 180.182916 
L 402.153524 180.182916 
L 402.153524 313.543308 
z
" clip-path="url(#pcb1dd46703)" style="fill: #404040; opacity: 0.62; stroke: #404040; stroke-linejoin: miter"/>
   </g>
   <g id="line2d_50">
    <path d="M 419.693018 313.543308 
L 419.693018 351.238931 
" clip-path="url(#pcb1dd46703)" style="fill: none; stroke: #404040; stroke-width: 1.2; stroke-linecap: square"/>
   </g>
   <g id="line2d_51">
    <path d="M 419.693018 180.182916 
L 419.693018 51.581765 
" clip-path="url(#pcb1dd46703)" style="fill: none; stroke: #404040; stroke-width: 1.2; stroke-linecap: square"/>
   </g>
   <g id="line2d_52">
    <path d="M 410.923271 351.238931 
L 428.462766 351.238931 
" clip-path="url(#pcb1dd46703)" style="fill: none; stroke: #404040; stroke-width: 1.2; stroke-linecap: square"/>
   </g>
   <g id="line2d_53">
    <path d="M 410.923271 51.581765 
L 428.462766 51.581765 
" clip-path="url(#pcb1dd46703)" style="fill: none; stroke: #404040; stroke-width: 1.2; stroke-linecap: square"/>
   </g>
   <g id="patch_9">
    <path d="M 511.775365 311.192686 
L 546.854355 311.192686 
L 546.854355 217.437625 
L 511.775365 217.437625 
L 511.775365 311.192686 
z
" clip-path="url(#pcb1dd46703)" style="fill: #5b3f8c; opacity: 0.62; stroke: #5b3f8c; stroke-linejoin: miter"/>
   </g>
   <g id="line2d_54">
    <path d="M 529.31486 311.192686 
L 529.31486 357.433153 
" clip-path="url(#pcb1dd46703)" style="fill: none; stroke: #5b3f8c; stroke-width: 1.2; stroke-linecap: square"/>
   </g>
   <g id="line2d_55">
    <path d="M 529.31486 217.437625 
L 529.31486 83.187302 
" clip-path="url(#pcb1dd46703)" style="fill: none; stroke: #5b3f8c; stroke-width: 1.2; stroke-linecap: square"/>
   </g>
   <g id="line2d_56">
    <path d="M 520.545113 357.433153 
L 538.084607 357.433153 
" clip-path="url(#pcb1dd46703)" style="fill: none; stroke: #5b3f8c; stroke-width: 1.2; stroke-linecap: square"/>
   </g>
   <g id="line2d_57">
    <path d="M 520.545113 83.187302 
L 538.084607 83.187302 
" clip-path="url(#pcb1dd46703)" style="fill: none; stroke: #5b3f8c; stroke-width: 1.2; stroke-linecap: square"/>
   </g>
   <g id="patch_10">
    <path d="M 621.397207 338.208099 
L 656.476196 338.208099 
L 656.476196 237.720202 
L 621.397207 237.720202 
L 621.397207 338.208099 
z
" clip-path="url(#pcb1dd46703)" style="fill: #135fa7; opacity: 0.62; stroke: #135fa7; stroke-linejoin: miter"/>
   </g>
   <g id="line2d_58">
    <path d="M 638.936702 338.208099 
L 638.936702 363.103401 
" clip-path="url(#pcb1dd46703)" style="fill: none; stroke: #135fa7; stroke-width: 1.2; stroke-linecap: square"/>
   </g>
   <g id="line2d_59">
    <path d="M 638.936702 237.720202 
L 638.936702 88.064097 
" clip-path="url(#pcb1dd46703)" style="fill: none; stroke: #135fa7; stroke-width: 1.2; stroke-linecap: square"/>
   </g>
   <g id="line2d_60">
    <path d="M 630.166954 363.103401 
L 647.706449 363.103401 
" clip-path="url(#pcb1dd46703)" style="fill: none; stroke: #135fa7; stroke-width: 1.2; stroke-linecap: square"/>
   </g>
   <g id="line2d_61">
    <path d="M 630.166954 88.064097 
L 647.706449 88.064097 
" clip-path="url(#pcb1dd46703)" style="fill: none; stroke: #135fa7; stroke-width: 1.2; stroke-linecap: square"/>
   </g>
   <g id="patch_11">
    <path d="M 682.785438 332.262707 
L 717.864427 332.262707 
L 717.864427 236.107738 
L 682.785438 236.107738 
L 682.785438 332.262707 
z
" clip-path="url(#pcb1dd46703)" style="fill: #135fa7; opacity: 0.62; stroke: #135fa7; stroke-linejoin: miter"/>
   </g>
   <g id="line2d_62">
    <path d="M 700.324933 332.262707 
L 700.324933 363.103401 
" clip-path="url(#pcb1dd46703)" style="fill: none; stroke: #135fa7; stroke-width: 1.2; stroke-linecap: square"/>
   </g>
   <g id="line2d_63">
    <path d="M 700.324933 236.107738 
L 700.324933 153.648666 
" clip-path="url(#pcb1dd46703)" style="fill: none; stroke: #135fa7; stroke-width: 1.2; stroke-linecap: square"/>
   </g>
   <g id="line2d_64">
    <path d="M 691.555185 363.103401 
L 709.09468 363.103401 
" clip-path="url(#pcb1dd46703)" style="fill: none; stroke: #135fa7; stroke-width: 1.2; stroke-linecap: square"/>
   </g>
   <g id="line2d_65">
    <path d="M 691.555185 153.648666 
L 709.09468 153.648666 
" clip-path="url(#pcb1dd46703)" style="fill: none; stroke: #135fa7; stroke-width: 1.2; stroke-linecap: square"/>
   </g>
   <g id="patch_12">
    <path d="M 744.173669 341.541381 
L 779.252659 341.541381 
L 779.252659 233.096945 
L 744.173669 233.096945 
L 744.173669 341.541381 
z
" clip-path="url(#pcb1dd46703)" style="fill: #135fa7; opacity: 0.62; stroke: #135fa7; stroke-linejoin: miter"/>
   </g>
   <g id="line2d_66">
    <path d="M 761.713164 341.541381 
L 761.713164 363.103401 
" clip-path="url(#pcb1dd46703)" style="fill: none; stroke: #135fa7; stroke-width: 1.2; stroke-linecap: square"/>
   </g>
   <g id="line2d_67">
    <path d="M 761.713164 233.096945 
L 761.713164 77.037936 
" clip-path="url(#pcb1dd46703)" style="fill: none; stroke: #135fa7; stroke-width: 1.2; stroke-linecap: square"/>
   </g>
   <g id="line2d_68">
    <path d="M 752.943417 363.103401 
L 770.482911 363.103401 
" clip-path="url(#pcb1dd46703)" style="fill: none; stroke: #135fa7; stroke-width: 1.2; stroke-linecap: square"/>
   </g>
   <g id="line2d_69">
    <path d="M 752.943417 77.037936 
L 770.482911 77.037936 
" clip-path="url(#pcb1dd46703)" style="fill: none; stroke: #135fa7; stroke-width: 1.2; stroke-linecap: square"/>
   </g>
   <g id="patch_13">
    <path d="M 805.561901 343.778807 
L 840.64089 343.778807 
L 840.64089 248.157554 
L 805.561901 248.157554 
L 805.561901 343.778807 
z
" clip-path="url(#pcb1dd46703)" style="fill: #135fa7; opacity: 0.62; stroke: #135fa7; stroke-linejoin: miter"/>
   </g>
   <g id="line2d_70">
    <path d="M 823.101395 343.778807 
L 823.101395 363.103401 
" clip-path="url(#pcb1dd46703)" style="fill: none; stroke: #135fa7; stroke-width: 1.2; stroke-linecap: square"/>
   </g>
   <g id="line2d_71">
    <path d="M 823.101395 248.157554 
L 823.101395 132.954256 
" clip-path="url(#pcb1dd46703)" style="fill: none; stroke: #135fa7; stroke-width: 1.2; stroke-linecap: square"/>
   </g>
   <g id="line2d_72">
    <path d="M 814.331648 363.103401 
L 831.871143 363.103401 
" clip-path="url(#pcb1dd46703)" style="fill: none; stroke: #135fa7; stroke-width: 1.2; stroke-linecap: square"/>
   </g>
   <g id="line2d_73">
    <path d="M 814.331648 132.954256 
L 831.871143 132.954256 
" clip-path="url(#pcb1dd46703)" style="fill: none; stroke: #135fa7; stroke-width: 1.2; stroke-linecap: square"/>
   </g>
   <g id="patch_14">
    <path d="M 866.950132 318.576688 
L 902.029121 318.576688 
L 902.029121 219.090765 
L 866.950132 219.090765 
L 866.950132 318.576688 
z
" clip-path="url(#pcb1dd46703)" style="fill: #135fa7; opacity: 0.62; stroke: #135fa7; stroke-linejoin: miter"/>
   </g>
   <g id="line2d_74">
    <path d="M 884.489627 318.576688 
L 884.489627 347.793393 
" clip-path="url(#pcb1dd46703)" style="fill: none; stroke: #135fa7; stroke-width: 1.2; stroke-linecap: square"/>
   </g>
   <g id="line2d_75">
    <path d="M 884.489627 219.090765 
L 884.489627 90.830241 
" clip-path="url(#pcb1dd46703)" style="fill: none; stroke: #135fa7; stroke-width: 1.2; stroke-linecap: square"/>
   </g>
   <g id="line2d_76">
    <path d="M 875.719879 347.793393 
L 893.259374 347.793393 
" clip-path="url(#pcb1dd46703)" style="fill: none; stroke: #135fa7; stroke-width: 1.2; stroke-linecap: square"/>
   </g>
   <g id="line2d_77">
    <path d="M 875.719879 90.830241 
L 893.259374 90.830241 
" clip-path="url(#pcb1dd46703)" style="fill: none; stroke: #135fa7; stroke-width: 1.2; stroke-linecap: square"/>
   </g>
   <g id="patch_15">
    <path d="M 928.338363 324.308856 
L 963.417353 324.308856 
L 963.417353 231.001481 
L 928.338363 231.001481 
L 928.338363 324.308856 
z
" clip-path="url(#pcb1dd46703)" style="fill: #135fa7; opacity: 0.62; stroke: #135fa7; stroke-linejoin: miter"/>
   </g>
   <g id="line2d_78">
    <path d="M 945.877858 324.308856 
L 945.877858 362.266589 
" clip-path="url(#pcb1dd46703)" style="fill: none; stroke: #135fa7; stroke-width: 1.2; stroke-linecap: square"/>
   </g>
   <g id="line2d_79">
    <path d="M 945.877858 231.001481 
L 945.877858 181.256979 
" clip-path="url(#pcb1dd46703)" style="fill: none; stroke: #135fa7; stroke-width: 1.2; stroke-linecap: square"/>
   </g>
   <g id="line2d_80">
    <path d="M 937.108111 362.266589 
L 954.647605 362.266589 
" clip-path="url(#pcb1dd46703)" style="fill: none; stroke: #135fa7; stroke-width: 1.2; stroke-linecap: square"/>
   </g>
   <g id="line2d_81">
    <path d="M 937.108111 181.256979 
L 954.647605 181.256979 
" clip-path="url(#pcb1dd46703)" style="fill: none; stroke: #135fa7; stroke-width: 1.2; stroke-linecap: square"/>
   </g>
   <g id="patch_16">
    <path d="M 989.726595 330.122944 
L 1024.805584 330.122944 
L 1024.805584 227.991745 
L 989.726595 227.991745 
L 989.726595 330.122944 
z
" clip-path="url(#pcb1dd46703)" style="fill: #135fa7; opacity: 0.62; stroke: #135fa7; stroke-linejoin: miter"/>
   </g>
   <g id="line2d_82">
    <path d="M 1007.266089 330.122944 
L 1007.266089 360.830478 
" clip-path="url(#pcb1dd46703)" style="fill: none; stroke: #135fa7; stroke-width: 1.2; stroke-linecap: square"/>
   </g>
   <g id="line2d_83">
    <path d="M 1007.266089 227.991745 
L 1007.266089 99.666537 
" clip-path="url(#pcb1dd46703)" style="fill: none; stroke: #135fa7; stroke-width: 1.2; stroke-linecap: square"/>
   </g>
   <g id="line2d_84">
    <path d="M 998.496342 360.830478 
L 1016.035837 360.830478 
" clip-path="url(#pcb1dd46703)" style="fill: none; stroke: #135fa7; stroke-width: 1.2; stroke-linecap: square"/>
   </g>
   <g id="line2d_85">
    <path d="M 998.496342 99.666537 
L 1016.035837 99.666537 
" clip-path="url(#pcb1dd46703)" style="fill: none; stroke: #135fa7; stroke-width: 1.2; stroke-linecap: square"/>
   </g>
   <g id="patch_17">
    <path d="M 1051.114826 323.966047 
L 1086.193815 323.966047 
L 1086.193815 229.605947 
L 1051.114826 229.605947 
L 1051.114826 323.966047 
z
" clip-path="url(#pcb1dd46703)" style="fill: #135fa7; opacity: 0.62; stroke: #135fa7; stroke-linejoin: miter"/>
   </g>
   <g id="line2d_86">
    <path d="M 1068.654321 323.966047 
L 1068.654321 355.638714 
" clip-path="url(#pcb1dd46703)" style="fill: none; stroke: #135fa7; stroke-width: 1.2; stroke-linecap: square"/>
   </g>
   <g id="line2d_87">
    <path d="M 1068.654321 229.605947 
L 1068.654321 104.893714 
" clip-path="url(#pcb1dd46703)" style="fill: none; stroke: #135fa7; stroke-width: 1.2; stroke-linecap: square"/>
   </g>
   <g id="line2d_88">
    <path d="M 1059.884573 355.638714 
L 1077.424068 355.638714 
" clip-path="url(#pcb1dd46703)" style="fill: none; stroke: #135fa7; stroke-width: 1.2; stroke-linecap: square"/>
   </g>
   <g id="line2d_89">
    <path d="M 1059.884573 104.893714 
L 1077.424068 104.893714 
" clip-path="url(#pcb1dd46703)" style="fill: none; stroke: #135fa7; stroke-width: 1.2; stroke-linecap: square"/>
   </g>
   <g id="patch_18">
    <path d="M 1112.503057 327.79649 
L 1147.582047 327.79649 
L 1147.582047 211.411906 
L 1112.503057 211.411906 
L 1112.503057 327.79649 
z
" clip-path="url(#pcb1dd46703)" style="fill: #135fa7; opacity: 0.62; stroke: #135fa7; stroke-linejoin: miter"/>
   </g>
   <g id="line2d_90">
    <path d="M 1130.042552 327.79649 
L 1130.042552 357.873767 
" clip-path="url(#pcb1dd46703)" style="fill: none; stroke: #135fa7; stroke-width: 1.2; stroke-linecap: square"/>
   </g>
   <g id="line2d_91">
    <path d="M 1130.042552 211.411906 
L 1130.042552 82.563846 
" clip-path="url(#pcb1dd46703)" style="fill: none; stroke: #135fa7; stroke-width: 1.2; stroke-linecap: square"/>
   </g>
   <g id="line2d_92">
    <path d="M 1121.272805 357.873767 
L 1138.812299 357.873767 
" clip-path="url(#pcb1dd46703)" style="fill: none; stroke: #135fa7; stroke-width: 1.2; stroke-linecap: square"/>
   </g>
   <g id="line2d_93">
    <path d="M 1121.272805 82.563846 
L 1138.812299 82.563846 
" clip-path="url(#pcb1dd46703)" style="fill: none; stroke: #135fa7; stroke-width: 1.2; stroke-linecap: square"/>
   </g>
   <g id="patch_19">
    <path d="M 1173.891289 332.771856 
L 1208.970278 332.771856 
L 1208.970278 236.534545 
L 1173.891289 236.534545 
L 1173.891289 332.771856 
z
" clip-path="url(#pcb1dd46703)" style="fill: #135fa7; opacity: 0.62; stroke: #135fa7; stroke-linejoin: miter"/>
   </g>
   <g id="line2d_94">
    <path d="M 1191.430783 332.771856 
L 1191.430783 359.085703 
" clip-path="url(#pcb1dd46703)" style="fill: none; stroke: #135fa7; stroke-width: 1.2; stroke-linecap: square"/>
   </g>
   <g id="line2d_95">
    <path d="M 1191.430783 236.534545 
L 1191.430783 97.361416 
" clip-path="url(#pcb1dd46703)" style="fill: none; stroke: #135fa7; stroke-width: 1.2; stroke-linecap: square"/>
   </g>
   <g id="line2d_96">
    <path d="M 1182.661036 359.085703 
L 1200.200531 359.085703 
" clip-path="url(#pcb1dd46703)" style="fill: none; stroke: #135fa7; stroke-width: 1.2; stroke-linecap: square"/>
   </g>
   <g id="line2d_97">
    <path d="M 1182.661036 97.361416 
L 1200.200531 97.361416 
" clip-path="url(#pcb1dd46703)" style="fill: none; stroke: #135fa7; stroke-width: 1.2; stroke-linecap: square"/>
   </g>
   <g id="line2d_98">
    <path d="M 474.503939 378.770537 
L 474.503939 34.09354 
" clip-path="url(#pcb1dd46703)" style="fill: none; stroke-dasharray: 4.44,1.92; stroke-dashoffset: 0; stroke: #404040; stroke-opacity: 0.75; stroke-width: 1.2"/>
   </g>
   <g id="line2d_99">
    <path d="M 584.125781 378.770537 
L 584.125781 34.09354 
" clip-path="url(#pcb1dd46703)" style="fill: none; stroke-dasharray: 4.44,1.92; stroke-dashoffset: 0; stroke: #404040; stroke-opacity: 0.75; stroke-width: 1.2"/>
   </g>
   <g id="line2d_100">
    <path d="M 95.212367 281.617694 
L 130.291356 281.617694 
" clip-path="url(#pcb1dd46703)" style="fill: none; stroke: #404040; stroke-width: 2"/>
   </g>
   <g id="line2d_101">
    <path d="M 156.600598 276.602437 
L 191.679588 276.602437 
" clip-path="url(#pcb1dd46703)" style="fill: none; stroke: #404040; stroke-width: 2"/>
   </g>
   <g id="line2d_102">
    <path d="M 217.98883 235.591814 
L 253.067819 235.591814 
" clip-path="url(#pcb1dd46703)" style="fill: none; stroke: #404040; stroke-width: 2"/>
   </g>
   <g id="line2d_103">
    <path d="M 279.377061 297.369046 
L 314.45605 297.369046 
" clip-path="url(#pcb1dd46703)" style="fill: none; stroke: #404040; stroke-width: 2"/>
   </g>
   <g id="line2d_104">
    <path d="M 340.765292 284.604245 
L 375.844282 284.604245 
" clip-path="url(#pcb1dd46703)" style="fill: none; stroke: #404040; stroke-width: 2"/>
   </g>
   <g id="line2d_105">
    <path d="M 402.153524 290.425087 
L 437.232513 290.425087 
" clip-path="url(#pcb1dd46703)" style="fill: none; stroke: #404040; stroke-width: 2"/>
   </g>
   <g id="line2d_106">
    <path d="M 511.775365 271.025607 
L 546.854355 271.025607 
" clip-path="url(#pcb1dd46703)" style="fill: none; stroke: #5b3f8c; stroke-width: 2"/>
   </g>
   <g id="line2d_107">
    <path d="M 621.397207 299.975559 
L 656.476196 299.975559 
" clip-path="url(#pcb1dd46703)" style="fill: none; stroke: #135fa7; stroke-width: 2"/>
   </g>
   <g id="line2d_108">
    <path d="M 682.785438 289.531636 
L 717.864427 289.531636 
" clip-path="url(#pcb1dd46703)" style="fill: none; stroke: #135fa7; stroke-width: 2"/>
   </g>
   <g id="line2d_109">
    <path d="M 744.173669 317.324278 
L 779.252659 317.324278 
" clip-path="url(#pcb1dd46703)" style="fill: none; stroke: #135fa7; stroke-width: 2"/>
   </g>
   <g id="line2d_110">
    <path d="M 805.561901 309.739859 
L 840.64089 309.739859 
" clip-path="url(#pcb1dd46703)" style="fill: none; stroke: #135fa7; stroke-width: 2"/>
   </g>
   <g id="line2d_111">
    <path d="M 866.950132 288.225401 
L 902.029121 288.225401 
" clip-path="url(#pcb1dd46703)" style="fill: none; stroke: #135fa7; stroke-width: 2"/>
   </g>
   <g id="line2d_112">
    <path d="M 928.338363 290.607359 
L 963.417353 290.607359 
" clip-path="url(#pcb1dd46703)" style="fill: none; stroke: #135fa7; stroke-width: 2"/>
   </g>
   <g id="line2d_113">
    <path d="M 989.726595 295.717043 
L 1024.805584 295.717043 
" clip-path="url(#pcb1dd46703)" style="fill: none; stroke: #135fa7; stroke-width: 2"/>
   </g>
   <g id="line2d_114">
    <path d="M 1051.114826 290.338428 
L 1086.193815 290.338428 
" clip-path="url(#pcb1dd46703)" style="fill: none; stroke: #135fa7; stroke-width: 2"/>
   </g>
   <g id="line2d_115">
    <path d="M 1112.503057 308.087856 
L 1147.582047 308.087856 
" clip-path="url(#pcb1dd46703)" style="fill: none; stroke: #135fa7; stroke-width: 2"/>
   </g>
   <g id="line2d_116">
    <path d="M 1173.891289 315.38753 
L 1208.970278 315.38753 
" clip-path="url(#pcb1dd46703)" style="fill: none; stroke: #135fa7; stroke-width: 2"/>
   </g>
   <g id="patch_20">
    <path d="M 68.903125 378.770537 
L 68.903125 34.09354 
" style="fill: none; stroke: #000000; stroke-width: 0.8; stroke-linejoin: miter; stroke-linecap: square"/>
   </g>
   <g id="patch_21">
    <path d="M 1235.27952 378.770537 
L 1235.27952 34.09354 
" style="fill: none; stroke: #000000; stroke-width: 0.8; stroke-linejoin: miter; stroke-linecap: square"/>
   </g>
   <g id="patch_22">
    <path d="M 68.903125 378.770537 
L 1235.27952 378.770537 
" style="fill: none; stroke: #000000; stroke-width: 0.8; stroke-linejoin: miter; stroke-linecap: square"/>
   </g>
   <g id="patch_23">
    <path d="M 68.903125 34.09354 
L 1235.27952 34.09354 
" style="fill: none; stroke: #000000; stroke-width: 0.8; stroke-linejoin: miter; stroke-linecap: square"/>
   </g>
   <g id="text_26">
    <!-- Baseline Architectures -->
    <g transform="translate(175.97244 22.921875) scale(0.2 -0.2)">
     <use xlink:href="#TimesNewRomanPSMT-42"/>
     <use xlink:href="#TimesNewRomanPSMT-61" transform="translate(66.699219 0)"/>
     <use xlink:href="#TimesNewRomanPSMT-73" transform="translate(111.083984 0)"/>
     <use xlink:href="#TimesNewRomanPSMT-65" transform="translate(150 0)"/>
     <use xlink:href="#TimesNewRomanPSMT-6c" transform="translate(194.384766 0)"/>
     <use xlink:href="#TimesNewRomanPSMT-69" transform="translate(222.167969 0)"/>
     <use xlink:href="#TimesNewRomanPSMT-6e" transform="translate(249.951172 0)"/>
     <use xlink:href="#TimesNewRomanPSMT-65" transform="translate(299.951172 0)"/>
     <use xlink:href="#TimesNewRomanPSMT-20" transform="translate(344.335938 0)"/>
     <use xlink:href="#TimesNewRomanPSMT-41" transform="translate(363.835938 0)"/>
     <use xlink:href="#TimesNewRomanPSMT-72" transform="translate(436.052734 0)"/>
     <use xlink:href="#TimesNewRomanPSMT-63" transform="translate(469.353516 0)"/>
     <use xlink:href="#TimesNewRomanPSMT-68" transform="translate(513.738281 0)"/>
     <use xlink:href="#TimesNewRomanPSMT-69" transform="translate(563.738281 0)"/>
     <use xlink:href="#TimesNewRomanPSMT-74" transform="translate(591.521484 0)"/>
     <use xlink:href="#TimesNewRomanPSMT-65" transform="translate(619.304688 0)"/>
     <use xlink:href="#TimesNewRomanPSMT-63" transform="translate(663.689453 0)"/>
     <use xlink:href="#TimesNewRomanPSMT-74" transform="translate(708.074219 0)"/>
     <use xlink:href="#TimesNewRomanPSMT-75" transform="translate(735.857422 0)"/>
     <use xlink:href="#TimesNewRomanPSMT-72" transform="translate(785.857422 0)"/>
     <use xlink:href="#TimesNewRomanPSMT-65" transform="translate(819.158203 0)"/>
     <use xlink:href="#TimesNewRomanPSMT-73" transform="translate(863.542969 0)"/>
    </g>
   </g>
   <g id="text_27">
    <!-- $\mathcal{A}_{\mathrm{acc}}^{*}$ -->
    <g transform="translate(510.51486 21.8) scale(0.2 -0.2)">
     <use xlink:href="#Cmsy10-41" transform="translate(0 0.6875)"/>
     <use xlink:href="#Cmsy10-a4" transform="translate(84.249297 38.951562) scale(0.7)"/>
     <use xlink:href="#Cmr10-61" transform="translate(84.249297 -24.821875) scale(0.7)"/>
     <use xlink:href="#Cmr10-63" transform="translate(119.249297 -24.821875) scale(0.7)"/>
     <use xlink:href="#Cmr10-63" transform="translate(150.318633 -24.821875) scale(0.7)"/>
    </g>
   </g>
   <g id="text_28">
    <!-- $\mathcal{A}_{\mathrm{safe}}^{*}$(training_track) -->
    <g transform="translate(831.783742 21.8) scale(0.2 -0.2)">
     <defs>
      <path id="Cmr10-73" d="M 213 -19 
L 213 1025 
Q 213 1075 269 1075 
L 347 1075 
Q 384 1075 397 1025 
Q 575 97 1259 97 
Q 1563 97 1767 234 
Q 1972 372 1972 659 
Q 1972 866 1812 1011 
Q 1653 1156 1434 1209 
L 1006 1294 
Q 791 1341 614 1437 
Q 438 1534 325 1695 
Q 213 1856 213 2069 
Q 213 2350 361 2529 
Q 509 2709 746 2789 
Q 984 2869 1259 2869 
Q 1588 2869 1831 2694 
L 2016 2853 
Q 2016 2869 2047 2869 
L 2094 2869 
Q 2113 2869 2128 2851 
Q 2144 2834 2144 2816 
L 2144 1978 
Q 2144 1919 2094 1919 
L 2016 1919 
Q 1959 1919 1959 1978 
Q 1959 2313 1773 2516 
Q 1588 2719 1253 2719 
Q 966 2719 755 2612 
Q 544 2506 544 2247 
Q 544 2069 695 1955 
Q 847 1841 1050 1791 
L 1484 1709 
Q 1703 1659 1892 1540 
Q 2081 1422 2192 1240 
Q 2303 1059 2303 831 
Q 2303 600 2223 429 
Q 2144 259 2001 146 
Q 1859 34 1665 -19 
Q 1472 -72 1259 -72 
Q 859 -72 575 197 
L 341 -56 
Q 341 -72 306 -72 
L 269 -72 
Q 213 -72 213 -19 
z
" transform="scale(0.015625)"/>
      <path id="Cmr10-66" d="M 206 0 
L 206 225 
Q 422 225 562 259 
Q 703 294 703 428 
L 703 2534 
L 213 2534 
L 213 2759 
L 703 2759 
L 703 3525 
Q 703 3731 789 3911 
Q 875 4091 1020 4225 
Q 1166 4359 1355 4436 
Q 1544 4513 1747 4513 
Q 1963 4513 2136 4384 
Q 2309 4256 2309 4044 
Q 2309 3922 2226 3839 
Q 2144 3756 2022 3756 
Q 1900 3756 1814 3839 
Q 1728 3922 1728 4044 
Q 1728 4244 1900 4313 
Q 1797 4347 1716 4347 
Q 1528 4347 1395 4214 
Q 1263 4081 1197 3890 
Q 1131 3700 1131 3513 
L 1131 2759 
L 1869 2759 
L 1869 2534 
L 1153 2534 
L 1153 428 
Q 1153 297 1340 261 
Q 1528 225 1772 225 
L 1772 0 
L 206 0 
z
" transform="scale(0.015625)"/>
      <path id="Cmr10-65" d="M 1594 -72 
Q 1203 -72 876 133 
Q 550 338 364 680 
Q 178 1022 178 1403 
Q 178 1778 348 2115 
Q 519 2453 823 2661 
Q 1128 2869 1503 2869 
Q 1797 2869 2014 2770 
Q 2231 2672 2372 2497 
Q 2513 2322 2584 2084 
Q 2656 1847 2656 1563 
Q 2656 1478 2591 1478 
L 738 1478 
L 738 1409 
Q 738 878 952 497 
Q 1166 116 1650 116 
Q 1847 116 2014 203 
Q 2181 291 2304 447 
Q 2428 603 2472 781 
Q 2478 803 2495 820 
Q 2513 838 2534 838 
L 2591 838 
Q 2656 838 2656 756 
Q 2566 394 2266 161 
Q 1966 -72 1594 -72 
z
M 744 1638 
L 2203 1638 
Q 2203 1878 2136 2125 
Q 2069 2372 1912 2536 
Q 1756 2700 1503 2700 
Q 1141 2700 942 2361 
Q 744 2022 744 1638 
z
" transform="scale(0.015625)"/>
      <path id="TimesNewRomanPSMT-5f" d="M 3256 -1381 
L -53 -1381 
L -53 -1119 
L 3256 -1119 
L 3256 -1381 
z
" transform="scale(0.015625)"/>
     </defs>
     <use xlink:href="#Cmsy10-41" transform="translate(0 0.6875)"/>
     <use xlink:href="#Cmsy10-a4" transform="translate(84.249297 38.951562) scale(0.7)"/>
     <use xlink:href="#Cmr10-73" transform="translate(84.249297 -24.821875) scale(0.7)"/>
     <use xlink:href="#Cmr10-61" transform="translate(111.832305 -24.821875) scale(0.7)"/>
     <use xlink:href="#Cmr10-66" transform="translate(146.832305 -24.821875) scale(0.7)"/>
     <use xlink:href="#Cmr10-65" transform="translate(168.194609 -24.821875) scale(0.7)"/>
     <use xlink:href="#TimesNewRomanPSMT-28" transform="translate(205.641289 0.6875)"/>
     <use xlink:href="#TimesNewRomanPSMT-74" transform="translate(238.94207 0.6875)"/>
     <use xlink:href="#TimesNewRomanPSMT-72" transform="translate(266.725273 0.6875)"/>
     <use xlink:href="#TimesNewRomanPSMT-61" transform="translate(300.026055 0.6875)"/>
     <use xlink:href="#TimesNewRomanPSMT-69" transform="translate(344.41082 0.6875)"/>
     <use xlink:href="#TimesNewRomanPSMT-6e" transform="translate(372.194023 0.6875)"/>
     <use xlink:href="#TimesNewRomanPSMT-69" transform="translate(422.194023 0.6875)"/>
     <use xlink:href="#TimesNewRomanPSMT-6e" transform="translate(449.977227 0.6875)"/>
     <use xlink:href="#TimesNewRomanPSMT-67" transform="translate(499.977227 0.6875)"/>
     <use xlink:href="#TimesNewRomanPSMT-5f" transform="translate(549.977227 0.6875)"/>
     <use xlink:href="#TimesNewRomanPSMT-74" transform="translate(599.977227 0.6875)"/>
     <use xlink:href="#TimesNewRomanPSMT-72" transform="translate(627.76043 0.6875)"/>
     <use xlink:href="#TimesNewRomanPSMT-61" transform="translate(661.061211 0.6875)"/>
     <use xlink:href="#TimesNewRomanPSMT-63" transform="translate(705.445977 0.6875)"/>
     <use xlink:href="#TimesNewRomanPSMT-6b" transform="translate(749.830742 0.6875)"/>
     <use xlink:href="#TimesNewRomanPSMT-29" transform="translate(799.830742 0.6875)"/>
    </g>
   </g>
  </g>
 </g>
 <defs>
  <clipPath id="pcb1dd46703">
   <rect x="68.903125" y="34.09354" width="1166.376395" height="344.676997"/>
  </clipPath>
 </defs>
</svg>
